<?xml version="1.0" encoding="UTF-8"?>
<svg id="Layer_1" data-name="Layer 1" xmlns="http://www.w3.org/2000/svg" viewBox="0 0 315.33 156.58">
  <defs>
    <style>
      .cls-1 {
        fill: #fa9d00;
      }

      .cls-2 {
        fill: #fff;
      }

      .cls-3 {
        fill: #c8bed2;
      }
    </style>
  </defs>
  <g>
    <polygon class="cls-3" points="183.51 146.64 5.27 123.35 139.72 27.79 313.26 39.08 183.51 146.64"/>
    <path d="M140.58,28.47c.09.11.07.26-.03.35-.09.07-.21.07-.3,0-.21-.15-.61-.3-.92-.44-.04-.01-.15-.03-.25-.2-.1-.16-.04-.39.03-.5.23-.31.49-.3.8-.36l1.1-.11c1.55.04,2.92.21,4.75.36l3.67.2c2.01.1,3.28.19,4.93.43,1.29.21,3.13.36,5.05.49,2.84.2,4.95.48,7.26.82,2.35.31,5.41.45,7.9.56,1.58.08,2.87.12,4.09.22,1.48.12,3.1.36,4.74.55,2.18.24,3.68.3,5.59.37,2.46.09,5.24.25,7.67.4,1.74.14,3.67.18,5.74.35,2.37.17,4.38.59,6.48.83,2.49.31,5.48.43,8.05.59l4.05.14,6.31.33,4.68.22c4.02.28,8.11.63,12.16.85l7.32.24,6.5.37,4.74.25c3.65.23,8.06.44,11.45.61l5.24.23,4.46.23c1.97.11,4.45.37,6.48.53,4.46.28,7.35.12,11.1.22,1.94.05,3.84.01,5.65.2,1.04.18,1.98.5,2.97.69.84.11,1.83.17,2.31.13.07,0,.15,0,.22.02l.21.05c.06.02.06-.02.25.1.1.06.18.16.23.27.13.31.01.45-.05.55-.17.27-.35.33-.53.39-.07.03-.14.04-.22.05-.68.04-1.69-.03-2.66-.17-1.06-.1-2.05-.31-2.86-.35-1.74-.23-3.61-.25-5.58-.35-3.69-.18-6.62-.12-11.15-.49-2.05-.14-4.53-.39-6.45-.48l-4.45-.21-5.25-.28c-3.38-.16-7.79-.37-11.46-.6l-4.73-.32-6.47-.26-7.34-.48c-4.06-.2-8.16-.54-12.16-.8l-4.67-.33-6.29-.29-4.08-.25c-2.55-.12-5.56-.21-8.11-.49-2.16-.26-4.14-.67-6.44-.84-2.03-.12-3.94-.11-5.73-.21-2.44-.19-5.21-.39-7.65-.52-1.9-.1-3.44-.19-5.66-.47-1.65-.2-3.26-.44-4.7-.56-1.18-.09-2.46-.11-4.05-.18-2.49-.12-5.57-.26-7.99-.59-2.3-.28-4.38-.5-7.19-.64-1.93-.1-3.79-.2-5.16-.38-1.62-.24-2.82-.32-4.81-.42l-3.72-.27c-1.85-.19-3.2-.39-4.65-.47l-1.21-.05-.21.02s.1-.06.06-.03c-.03.02.14-.17.11-.11-.03.04.05-.21.05-.16,0,.08-.06-.22-.04-.18.02.04-.06-.07-.05-.06.19.15.61.37.86.68"/>
    <path d="M311.88,39.45c.1-.08.24-.05.31.06.07.11.05.25-.04.33-1.01.88-1.43,1.73-2.14,2.4-.29.26-.6.4-.89.58-.62.39-1.26.98-1.99,1.51l-1.3.84-1.13.86c-.52.45-1.11,1.02-1.77,1.72l-.91,1.03-.87.94-.74.76-1.25,1.19c-1.45,1.35-2.81,2.62-4.2,3.47-.66.39-1.32.83-2.15,1.55l-1.38,1.26c-.6.52-1.14.88-1.6,1.23-.89.68-1.72,1.65-2.63,2.39-.51.39-1.03.62-1.45.89l-.5.49c-1.39,1.37-3.02,3.25-4.64,4.58-1.07.86-1.95,1.43-2.74,2.07-1.45,1.17-3.1,2.5-4.47,3.83-.76.73-1.48,1.43-2.14,2l-.85.67c-.96.74-2.31,2.01-3.58,3l-1.72,1.28c-1.26.99-2.77,2.44-4.02,3.51l-2.38,2.03c-2,1.77-4.21,3.54-6.52,5.46-2.34,1.94-4.77,4.02-7.18,6.36-3.1,2.97-6.11,5.12-9.28,7.59l-4.78,3.92-3.64,2.8c-2.08,1.66-3.42,2.84-5.1,4.15l-2.9,2.17-1.03.83c-2.43,1.98-5.26,4.09-7.99,6.32-1.54,1.25-3.17,2.72-4.46,3.7-1.79,1.34-3.6,2.5-5.35,3.96-.97.8-1.96,1.42-3,2.19l-1.46,1.15c-1.02.83-1.97,1.51-3.09,2.46l-2.26,2c-2.02,1.84-3.67,3.33-5.14,4.51-.86.66-1.66,1.22-2.44,1.67-.09.05-.19.08-.29.09h-.47c-.25,0-.45-.22-.45-.49,0-.1.03-.21.09-.29l.25-.39c.06-.09.13-.17.22-.22.71-.44,1.45-.98,2.26-1.62,1.46-1.11,3.12-2.55,5.16-4.35.79-.71,1.56-1.44,2.28-2.04,1.19-.97,2.16-1.63,3.17-2.42l1.47-1.18c1.05-.81,2.02-1.45,2.9-2.21,1.83-1.53,3.65-2.71,5.39-4.02,1.24-.92,2.89-2.37,4.46-3.63,2.77-2.22,5.63-4.31,8.04-6.24l1.07-.85,2.92-2.13c1.66-1.27,3.01-2.44,5.11-4.1l3.62-2.83,4.83-3.85c3.16-2.51,6.11-4.66,9.12-7.6,2.45-2.36,4.92-4.45,7.27-6.39,2.33-1.91,4.54-3.68,6.51-5.41l2.42-2.01c1.23-1.04,2.76-2.49,4.08-3.51l1.75-1.25c1.22-.95,2.56-2.21,3.58-3l.82-.64c.62-.53,1.33-1.23,2.09-1.96,1.42-1.36,3.1-2.69,4.56-3.85.83-.67,1.7-1.23,2.73-2.06,1.56-1.22,3.21-3.05,4.66-4.42.21-.19.41-.39.66-.54.44-.32.94-.57,1.33-.9.85-.68,1.7-1.65,2.68-2.38.47-.37.98-.73,1.53-1.22l1.41-1.26c.86-.75,1.56-1.23,2.23-1.65,1.29-.79,2.62-2.03,4.06-3.37l1.27-1.15.69-.74.84-.94.96-1.03c.68-.71,1.31-1.28,1.87-1.74.45-.38.81-.66,1.2-.92l1.25-.84c.69-.49,1.35-1.08,2.06-1.5.35-.2.63-.32.82-.47.66-.5,1.2-1.33,2.31-2.18"/>
    <path d="M138.77,27.72c.1-.07.24-.03.3.08.06.11.03.25-.06.32-1.04.79-1.51,1.58-2.26,2.19-.3.23-.62.34-.91.5-.64.33-1.3.86-2.05,1.32l-1.33.72-1.17.76c-.54.4-1.16.91-1.85,1.55l-.96.94-.91.86-.78.69-1.3,1.07c-1.51,1.21-2.93,2.35-4.35,3.08-.67.34-1.35.72-2.21,1.35l-1.44,1.13c-.62.46-1.17.78-1.66,1.08-.91.6-1.8,1.48-2.74,2.14-.52.34-1.05.53-1.48.76l-.52.44c-1.46,1.24-3.18,2.95-4.86,4.13-1.11.76-2.01,1.26-2.82,1.82-1.5,1.04-3.21,2.21-4.64,3.41-.79.65-1.54,1.29-2.23,1.79l-.88.59c-.99.65-2.39,1.8-3.71,2.67l-1.78,1.13c-1.3.87-2.88,2.18-4.18,3.13l-2.47,1.81c-2.08,1.58-4.36,3.15-6.76,4.85-2.42,1.72-4.95,3.57-7.47,5.68-3.24,2.68-6.34,4.55-9.61,6.72l-4.95,3.47-3.75,2.47c-2.15,1.47-3.54,2.52-5.28,3.67l-2.99,1.91-1.07.73c-2.51,1.75-5.44,3.61-8.26,5.58-1.59,1.11-3.29,2.42-4.62,3.28-1.84,1.18-3.7,2.17-5.51,3.47-1.01.7-2.02,1.25-3.09,1.91l-1.51,1.01c-1.05.73-2.03,1.33-3.2,2.17l-2.35,1.79c-2.1,1.65-3.82,2.98-5.34,4.02-.89.58-1.71,1.06-2.5,1.45-.09.04-.19.07-.29.06l-.46-.03c-.24-.02-.43-.26-.41-.53,0-.1.04-.2.1-.28l.27-.36c.06-.08.14-.15.23-.2.72-.37,1.49-.84,2.32-1.41,1.5-.98,3.23-2.26,5.35-3.87.83-.64,1.63-1.29,2.37-1.82,1.23-.85,2.23-1.43,3.27-2.12l1.52-1.05c1.09-.71,2.08-1.27,2.99-1.94,1.89-1.36,3.76-2.37,5.55-3.52,1.27-.81,2.99-2.1,4.62-3.21,2.87-1.96,5.81-3.79,8.31-5.5l1.1-.75,3-1.86c1.72-1.12,3.11-2.16,5.29-3.63l3.73-2.49,5-3.4c3.26-2.21,6.31-4.1,9.45-6.74,2.56-2.13,5.12-3.99,7.56-5.7,2.41-1.7,4.7-3.25,6.75-4.8l2.51-1.78c1.27-.92,2.87-2.22,4.23-3.12l1.8-1.09c1.26-.83,2.66-1.97,3.71-2.66l.85-.56c.64-.47,1.39-1.1,2.18-1.76,1.49-1.22,3.22-2.4,4.73-3.42.86-.59,1.75-1.08,2.82-1.81,1.61-1.08,3.35-2.74,4.86-3.97.22-.17.43-.35.68-.48.46-.28.96-.48,1.36-.78.88-.6,1.78-1.48,2.79-2.13.49-.32,1.01-.64,1.58-1.08l1.46-1.12c.89-.67,1.61-1.09,2.3-1.45,1.32-.68,2.71-1.79,4.21-3l1.32-1.03.72-.67.88-.86,1.01-.93c.72-.64,1.37-1.15,1.95-1.56.47-.34.84-.58,1.24-.81l1.28-.73c.71-.42,1.39-.96,2.12-1.31.35-.17.64-.26.84-.4.68-.44,1.27-1.21,2.41-1.96"/>
    <path d="M5.36,124.49c.09.11.06.27-.05.36-.09.07-.22.06-.32-.01-.21-.17-.62-.34-.94-.51-.04-.02-.15-.04-.25-.22-.09-.17-.03-.41.06-.51.25-.3.53-.28.85-.32l1.15-.04c1.61.14,3.03.4,4.92.66l3.81.44c2.08.23,3.4.4,5.11.75,1.33.3,3.24.56,5.23.82,2.94.38,5.12.8,7.51,1.3,2.43.47,5.6.8,8.18,1.07,1.64.18,2.98.3,4.24.48,1.54.21,3.21.56,4.9.86,2.26.39,3.81.53,5.79.72,2.56.24,5.44.59,7.96.89,1.81.26,3.81.41,5.96.71,2.46.32,4.52.88,6.7,1.26,2.57.47,5.68.78,8.34,1.1l4.21.4,6.55.73,4.86.51c4.16.54,8.4,1.15,12.6,1.63l7.6.7,6.74.78,4.91.55c3.79.47,8.37.96,11.88,1.33l5.44.56,4.63.51c2.04.24,4.61.66,6.72.94,4.63.57,7.64.58,11.54.91,2.01.17,3.99.25,5.87.55,1.07.25,2.03.64,3.05.9.87.17,1.9.28,2.39.27.08,0,.16,0,.23.03l.22.07c.06.02.06-.02.26.12.1.07.18.17.22.29.12.32-.01.46-.08.56-.19.27-.38.31-.57.37-.07.02-.15.04-.23.04-.71,0-1.76-.13-2.76-.34-1.1-.17-2.11-.44-2.96-.54-1.79-.34-3.74-.48-5.79-.71-3.83-.42-6.88-.53-11.57-1.19-2.13-.27-4.7-.68-6.69-.9l-4.62-.49-5.44-.61c-3.51-.37-8.09-.86-11.89-1.32l-4.9-.62-6.72-.67-7.61-.95c-4.22-.46-8.47-1.06-12.61-1.58l-4.84-.63-6.53-.69-4.23-.51c-2.64-.28-5.77-.56-8.41-1.01-2.24-.4-4.27-.95-6.66-1.27-2.1-.25-4.1-.36-5.95-.57-2.52-.35-5.4-.73-7.93-1.01-1.98-.22-3.57-.41-5.86-.84-1.71-.31-3.37-.65-4.86-.86-1.22-.16-2.56-.27-4.2-.43-2.59-.27-5.78-.61-8.29-1.1-2.38-.43-4.53-.78-7.44-1.1-2-.22-3.93-.44-5.35-.71-1.67-.34-2.92-.5-4.98-.73l-3.86-.51c-1.92-.31-3.31-.6-4.82-.78l-1.26-.13h-.22s.11-.04.07-.02c-.03.02.15-.17.12-.11-.03.04.06-.21.06-.16,0,.08-.05-.23-.03-.19.02.04-.06-.08-.05-.07.19.17.61.42.86.75"/>
  </g>
  <path d="M155.74,54.31c-.15.09-.34.04-.44-.1-.07-.12-.06-.27.03-.37.04-.04.01.07.02,0v.08c0-.06.19.27.12.21-.08-.07.33.09.26.09-.08,0-.16-.02-.23-.07-.05-.03.19.07.15.06-.07-.01.17,0,.15,0-.07.02.06-.02.05-.01-.2.12-.45.06-.57-.14-.12-.2-.06-.45.14-.57.01,0,.03-.02.05-.02l.16-.05c.08-.01.28-.04.44.17.05.07.07.15.07.23,0,.26-.12.31-.18.36l-.21.15Z"/>
  <path d="M156.15,53.94c0,.38-.31.69-.69.69s-.69-.31-.69-.69.31-.69.69-.69.69.31.69.69"/>
  <path d="M110.97,87.44c-.12.12-.33.12-.45,0-.07-.07-.11-.18-.09-.28l.16-.39c.15-.18.41-.22.6-.07.18.15.22.41.07.6-.1.13-.26.19-.42.15h.11s.03-.01.03-.01Z"/>
  <path d="M124.44,71.01c-.03.17-.19.29-.36.26-.17-.03-.29-.19-.26-.36l.03-.14v.17s-.03-.16-.03-.16c-.02-.22.14-.42.37-.44s.42.15.44.37-.15.42-.37.44c-.02,0-.03,0-.05,0-.05,0,.15-.03.12-.02l.04-.02.09-.14v.05Z"/>
  <path d="M123.59,71.45c-.17-.04-.28-.21-.23-.38.02-.07.06-.14.12-.18l.02-.02-.03.03-.03.05s-.04.22-.03.13c.01-.24.22-.42.45-.4s.42.22.4.45c-.01.24-.22.42-.45.4-.17-.01-.32-.12-.38-.28-.03-.08.09.15.07.13-.03-.04.08.07.07.06-.04-.03.03.02,0,0"/>
  <path d="M124.59,71.12c0,.38-.31.69-.69.69s-.69-.31-.69-.69.31-.69.69-.69.69.31.69.69"/>
  <path d="M124.24,56.4c.32.05.53.34.49.66-.04.23-.2.42-.43.47-.03.01-.07.02-.11.03-.06,0,.15-.05.12-.03-.04.02.07-.04.06-.03l-.14.13c-.34.33-.79.86-1.41,1.4l-.91.88-.54.41-.21.16-.18.19-.38.35-.47.33-.35.25.09-.08-.52.65-1.19,1.14-.6.56-.97.74-.6.41-.54.52-.91.75-.31.3-.27.28-.24.26-.58.43s-.09.05-.14.06l-.35.09c-.17.04-.34-.06-.39-.23-.02-.08-.01-.16.02-.22l.11-.27s.04-.09.07-.13l.28-.44.31-.36.3-.32.34-.33.94-.76.69-.51.48-.42.8-.8.65-.55,1.07-1.05.72-.6-.09.09.32-.38.29-.33.47-.41.37-.23.12-.11.37-.38,1.07-.91c.56-.44,1-.9,1.47-1.3.03-.03,0-.19.44-.32.04-.01.08-.02.12-.02h.19Z"/>
  <path d="M124.01,57.35c-.18,0-.32-.13-.33-.31,0-.15.1-.28.24-.32l.06-.02h-.02s-.11.13-.07.08c.11-.16.33-.19.49-.08.16.11.19.33.08.49-.07.1-.19.15-.31.14h-.14Z"/>
  <path d="M112.46,79.94c-.36.04-.69-.22-.73-.59-.02-.15.02-.31.11-.43.12-.17.25-.26.37-.32.1-.05.21-.08.32-.08l.78.09c.53.03,1.02.09,1.55.06l.85-.15c.06,0,.12,0,.19.01l.48.17-.15-.03.55-.03.55-.04s.09,0,.14,0l.37.06.36-.05s.09,0,.14,0l1.02.08,1.26-.04.19-.05,1.14-.1.24-.05.64-.06s.1,0,.15,0l1.22.21c.81.05,1.67.16,2.5.14l1.58.05.76.18.65.11.47-.04,3.24-.32c.06,0,.12,0,.19,0l1.06.14.45-.02-.14.02.2-.05c.05-.01.1-.02.16-.02h.44s.78.14.78.14c.05.01.09.03.13.05l.42.31c.13.13.13.35,0,.48-.04.04-.09.07-.14.08l-.35.13s-.09.03-.14.03l-.58.09h-.55c-.05.02-.11,0-.16,0l-.21-.05.14.02h-.53s-.98.15-.98.15c-.06,0-.12,0-.19,0l-3.23-.35-.57-.05-.61.06-.67.08-1.57.06c-.98,0-1.88-.16-2.76-.25l-.98.14s-.1.01-.15.01h-.52s-.4-.04-.4-.04h-1.04s-.42-.09-.42-.09h-1.18s-.98.09-.98.09c-.05,0-.09,0-.14,0l-.5-.07h-.36s-.09-.01-.14-.02l-.46-.11-.61-.03h.15s-.35.05-.35.05c-.06.02-.12.03-.18.03l-.84.07c-.58.07-1.14.05-1.71.04l-.44.06c-.1.04-.22.05-.33.04-.03,0,.06,0,.01,0"/>
  <path d="M112.14,68.29c.03.17-.08.34-.25.37-.13.03-.26-.03-.33-.15l-.04-.06s.18.07.11.05c-.04,0,.21-.01.15,0-.06.01.23-.14.18-.09-.05.04.11-.18.1-.14-.03.07.03-.13.03-.11l.05.34c.02.77.08,1.39.01,2.19-.13.78-.18,1.67-.17,2.4l.09,2.18v1.15s.05.35.05.35c0,.04,0,.09,0,.14l-.04.53v.03s.17.25.17.25c.03.06.06.13.07.2.15.79-.23,1.24-.3,1.72-.03.17-.19.29-.36.26-.12-.02-.22-.11-.25-.22l-.27-1.15c-.05-.05-.09-.11-.12-.17l-.21-.4-.1-.48-.04-.54s0-.09,0-.14l.03-.42-.07-1.06-.11-2.18c-.04-.82,0-1.77.13-2.62.16-.73.22-1.29.31-1.98.08-.3.08-.56.43-.77.1-.06.3-.12.48-.02.25.14.21.25.23.31l.05.23Z"/>
  <path d="M138.16,79.54c-.28.09-.57-.06-.66-.34-.06-.18-.02-.37.11-.51l.3-.4s.06-.07.09-.11l.47-.38.27-.18.71-.61.33-.29,1.17-.92.22-.22s.07-.07.11-.1l.21-.2.41-.49c.44-.38.76-.49.96-.6l.76-.62.57-.35.2-.12.46-.34,2.07-1.48,1.04-.77.37-.31s.07-.05.1-.08l.53-.32.39-.21.21-.1c.06-.03.13-.05.2-.06l.53-.02h.05c.33,0,.59.27.58.6,0,.22-.13.41-.32.51l-.05.03-.15.15s-.1.09-.17.12l-.15.09-.23.17-.33.36s-.06.06-.09.09l-.46.35-1.04.71-2.1,1.51-.6.4-.3.14-.39.2-.97.64-.59.38-.55.44-.27.28s-.08.06-.12.09l-.33.17-1.18.85-.26.23-.7.71-.23.2-.49.34s-.08.06-.12.08l-.58.27Z"/>
  <path d="M137.74,79.48c-.18,0-.33-.13-.34-.31,0-.18.13-.33.31-.34h.02c.16-.08.35,0,.42.16.07.16,0,.35-.17.42l-.24.06Z"/>
  <path d="M136.15,68.03c.08-.25.34-.38.59-.3.18.06.31.22.32.4l.06.45.09.51.09.67.26,1.58-.02,1.48-.03.96-.21,1.24-.04.99v1.3s.01.76.01.76l-.09,1.16c0,.18-.16.33-.34.32-.14,0-.26-.09-.3-.22l-.29-1.16-.03-.85v-1.34s-.03-1.05-.03-1.05l-.15-1.09v-1.07s0-1.32,0-1.32v-1.57s-.07-.64-.07-.64l.08-.67.12-.56Z"/>
  <path d="M136.38,67.76c.08-.16.27-.21.43-.13.16.08.21.27.13.43l-.02.1c-.03.17-.19.29-.37.26-.17-.03-.29-.19-.26-.37l.09-.28Z"/>
  <path d="M149.85,57.84c.36.09.59.46.5.82-.02.1-.07.19-.14.27-.04.05.13-.26.11-.18-.04.11,0-.5.02-.38.03.12-.16-.3-.12-.25.07.09.11.18.13.29.02.09-.09-.2-.07-.17.03.05-.03-.05-.02-.03l.4.34s.07.07.1.11l.27.48c.47.75.37,1.68.3,2.43-.03.83-.19,1.55-.19,2.22v1.91s.03.96.03.96v.99s0,.39,0,.39l.02.11c.01.07.01.15,0,.22l-.1.73-.02.25c-.01.11-.05.22-.11.32l-.2.31c-.16.24-.5.31-.74.15-.08-.06-.15-.14-.19-.23l-.14-.31c-.05-.1-.07-.22-.06-.33v-.29s-.03-.64-.03-.64c0-.07,0-.15.01-.22l.04-.2v-.31s0-.91,0-.91v-.98s.02-1.92.02-1.92c.04-.9.26-1.62.33-2.33.02-.67-.02-1.3-.23-1.62l-.14-.12s-.07-.06-.1-.1l-.26-.26c-.13-.13-.37-.26-.38-.76,0-.11.02-.22.06-.31.09-.22.32-.38.5-.43.17-.05.29-.02.38,0"/>
  <path d="M150.3,59.01c-.12.12-.33.12-.45,0-.12-.12-.12-.33,0-.45.04-.04-.09.16-.08.12.02-.07,0,.19,0,.15-.01-.05.03.07.02.06l-.06-.07c-.13-.12-.14-.32-.02-.45.12-.13.32-.14.45-.02l.15.16.06.12c.02.06.08.22-.07.37"/>
  <path d="M149.34,57.8c.28.01.51.25.49.54,0,.21-.14.39-.34.46-.06.02.08-.05.08-.05l-.07.08-.45.44-.43.42c-.36.36-.83.72-1.34,1.03l-.49.31-.25.23-.51.33-.29.18-.23.14-.27.22-.46.42-.34.19-.54.24-.76.56s-.08.06-.13.08l-.67.33-.27.25-.43.35-.58.29.18-.13-.23.24s-.09.08-.15.11l-1.31.7-1.41.92-.34.2-.13.09-.21.14-.21.12-.2.11-.19.11c-.06.04-.12.06-.19.08l-.27.09-.02.02c-.15.09-.33.11-.5.06l-.09-.02c-.2-.02-.35-.19-.36-.39v-.13c-.03-.17.02-.35.13-.48l.09-.11.16-.24c.04-.06.09-.11.14-.15l.2-.16.22-.15.24-.14.25-.12.24-.1.25-.13,1.55-.75,1.36-.7c.06-.03.11-.05.17-.06l.28-.06-.2.09.36-.29.43-.35.48-.3.46-.45s.08-.07.12-.09l1.01-.55.4-.29.28-.12.48-.28.34-.24.21-.16.32-.2.4-.25.45-.26.52-.26c.42-.24.84-.57,1.16-.86l.35-.39.35-.42c.21-.19.41-.35.71-.34"/>
  <path d="M112.11,68.31c-.38-.02-.67-.35-.65-.73.02-.35.29-.63.64-.65.39-.03,1.04-.06,1.61-.18l1.4-.08,1.4.04h-.13s.4-.05.4-.05c.04,0,.09,0,.13,0h1.54s.7-.02.7-.02h.46c.38.04.6.15.71.16l.49-.16c1.69-.32,3.19.26,4.53.2.78-.03,1.53.04,2.2.06l1.01-.02.57-.06c1-.17,1.89-.15,2.74-.17l1.51-.08.23-.05.48-.07.95-.03-.17.02.32-.08.22-.05-.14.04.1-.04c.16-.06.33-.08.49-.05l.66.14.32.08.23.06.24.08c.33.11.5.47.39.8-.08.23-.29.4-.53.42l-.2.02-.22.02-.31.03-.59.09c-.17.03-.34,0-.49-.06l-.09-.04.14.04-.2-.04-.31-.07.17.02-.85.04h-.5s-.37-.05-.37-.05l-1.48.04c-.88,0-1.69-.03-2.61.11l-.58.12-1.17.04c-.71.02-1.44,0-2.09.06-1.66.16-3.19-.26-4.19-.01-.31.05-.72.17-1.22.05l-.52-.11h-.32s-.84,0-.84,0h-1.48s-.09,0-.13,0l-.41-.09.13.02h-1.34s-1.09.15-1.09.15c-.79.12-1.51.11-1.92.08"/>
  <path d="M164.41,117.76c-.13.11-.34.09-.45-.04-.1-.12-.1-.31.02-.42l.09-.11c.09-.16.29-.22.45-.14.16.09.22.29.14.45-.01.02-.02.04-.04.05l-.22.21Z"/>
  <path d="M151.75,126.74c-.32-.12-.48-.48-.36-.8.12-.32.48-.48.8-.36.07.02.13.06.18.11l.11.05.46.04c.5-.1,1.09-.3,1.85-.41.73-.07,1.28.04,1.85.08l.69-.02.36-.04.47-.08.53-.05s.09,0,.14,0l.55.07.39.07h-.14s1.11-.16,1.11-.16l.71-.15s.08-.01.12-.01h.35s.49.03.49.03l1.45-.19,1.51-.04,3.23.25h1.59s1.89-.03,1.89-.03l.79-.1s.08,0,.12,0h1.13s.68,0,.68,0l.29-.02.19-.02c.1-.01.19,0,.29.01l.2.05c.45.11.72.56.61,1-.06.24-.22.44-.44.55l-.21.1c-.09.04-.18.06-.28.07l-.22.02-.35.02-.72.05h-1.15s-.08,0-.12,0l-.86-.1-1.81-.02-1.69-.07-3.19-.03-1.26.05-1.75-.05-.33.03-.31.03s-.08,0-.13,0l-.62.02-1.19.16.13-.02-.46.1-.62.02s-.09,0-.14,0l-.4-.04h-.48s-.4,0-.4,0l-.88-.03c-.65-.09-1.08-.21-1.59-.19-.66,0-1.25.11-1.93.13-.18.04-.47.1-.81.03l-.42-.13Z"/>
  <path d="M152.47,125.8c.17.03.29.2.26.37-.02.11-.09.2-.19.24l-.33.07.2-.11.02-.02s.06-.15.04-.1c-.07.24-.31.38-.55.33l-.1-.02c-.23-.07-.35-.31-.28-.54,0,0,0-.02,0-.02.07-.19.16-.23.23-.27.21-.13.49-.07.63.13.03.05-.02-.03,0,0l-.2-.11.28.06Z"/>
  <path d="M152.59,126.16c0,.34-.28.62-.62.62s-.62-.28-.62-.62.28-.62.62-.62.62.28.62.62"/>
  <path d="M152.63,113.08c.31.04.52.32.48.63-.04.3-.31.51-.61.48-.1,0,.2-.03.18-.02l-.15.11.12-.11-.23.23-.06.06s.08-.17.07-.13c-.03.07-.06.14-.11.2-.04.05-.17.99-.21,1.98l-.09,2.02c-.08,1.05-.07,1.91-.04,2.7l.06,1.16-.02.71v.16s.2.3.2.3l.13.32c.02.05.03.11.03.16v.81s-.04.31-.04.31l-.09.51c-.02.15-.08.28-.19.38l-.08.08.09-.27.03.15c.06.16-.02.35-.19.41-.1.04-.22.02-.3-.05l-.25-.27.24.16-.29-.11c-.13-.07-.23-.19-.28-.32l-.16-.58-.04-.4-.09-.41c-.02-.05-.03-.1-.04-.16l-.02-.08c-.04-.15-.21-.42-.21-.88v-.25s-.02-.62-.02-.62l.06-1.23c.03-.81.08-1.73.22-2.85l.08-1.91c-.02-1-.17-1.95.28-2.75.04-.07.08-.13.14-.18.24-.22.46-.23.48-.24l.33-.06-.15.07c.1-.06.2-.32.72-.25"/>
  <path d="M152.95,114.26c-.07.16-.26.23-.42.16-.13-.06-.2-.19-.19-.33v-.14s.06.08.03.04l.35.13s.16-.05.11-.03c-.21.09-.46,0-.54-.22-.09-.21,0-.46.22-.54.21-.09.46,0,.54.22.08.18.02.39-.14.5l.04-.03.13-.35c.03.22-.03.39-.12.59"/>
  <path d="M153.86,113.94c0-.18.15-.31.33-.31.03,0,.05,0,.07.01h-.05c.1-.04.22-.05.33-.02h.34s1.73-.13,1.73-.13l.72.03.67-.08.85.09c.37-.02.93-.14,1.49-.23.08-.01.16-.01.24,0h1.24s.57-.12.57-.12l.65-.14c1.37-.13,2.6-.11,3.98-.05l1.14-.06,1.9.05,1.75-.16s.09,0,.14,0l.81.16.39.02h-.12s1.36-.25,1.36-.25c.05,0,.09-.02.14-.02l.67-.04c.46.06.69.19.84.27l.3.24-.14-.08.63.11h.6s.75.04.75.04c.12.01.24.06.34.14.09.08.26.02.26.48,0,.02,0,.05,0,.07-.06.41-.16.32-.23.39-.09.08-.2.14-.33.16l-.68.1-.75.03c-.37,0-.75-.02-1.13-.16l.16.04-.18-.03-.33-.03-.66.06s-.09,0-.14,0l-1.47-.13h.12s-.53,0-.53,0l-.78-.02s-.09,0-.14,0l-1.76-.12-1.63.18h-1.37c-1.32,0-2.47.04-3.65.19l-.75.03-.6.08-1.36.3c-.08.01-.16.01-.24,0-.49-.07-1.14-.1-1.75-.27l-.6-.06-.79-.17-.48.06-1.75.05c-.22.01-.47.03-.75-.07-.11-.04-.2-.11-.26-.21-.09-.15-.12-.31-.12-.44"/>
  <path d="M165.17,103.36c.46.09.76.53.68.99-.09.46-.53.76-.99.68-.43-.08-.73-.48-.69-.91,0-.08.07.35.03.25l.45.46c-.12-.04.43.03.33.04-.08.01.22-.07.18-.05-.07.03.12-.07.11-.06l-.13.13-.69.55-.63.62-.61.67c-.49.48-.95.73-1.21.95l-.33.44-.44.54c-.63.69-1.5,1.12-2.24,1.73l-1.52,1.22-.27.21-.06.08-.19.21c-.05.06-.11.11-.18.16l-1.11.76.15-.12-.25.26-.07.09c-.05.06-.1.12-.16.16l-.18.15s-.1.08-.15.11l-.36.22-.06.07.09-.1-.09.12s-.07.08-.11.12l-.11.1c-.15.18-.37.29-.62.3l-.17.02c-.32.05-.62-.17-.66-.49,0-.03,0-.05,0-.08v-.2c-.04-.24.04-.48.21-.66l.06-.07.05-.07s.07-.08.11-.12l.14-.12-.1.1.17-.2.26-.36s.08-.09.13-.13l.23-.19c.06-.05.13-.09.2-.12l.17-.08.35-.16-.17.1.91-.83c.06-.05.12-.1.2-.14l.3-.15.34-.13.18-.09,1.38-1.13c.84-.72,1.7-1.23,2.02-1.61l.37-.45.68-.64c.38-.32.77-.51,1.1-.83l.6-.61.74-.72.52-.49.22-.23.23-.16c.12-.07.36-.15.63-.06l-.63.08c.22-.14.47-.16.67-.12"/>
  <path d="M165.21,105.05c-.29.12-.62-.01-.74-.3-.06-.13-.06-.29,0-.42.03-.08,0,.26-.02.2l.16.29c-.09-.09.37.17.28.15-.4-.09-.66-.48-.57-.89.09-.4.48-.66.89-.57.4.09.66.48.57.89-.02.08-.05.16-.1.24-.08.13-.21.25-.36.32l.26-.21c-.09.12-.21.23-.36.29"/>
  <path d="M164.5,104.84c-.12-.12-.12-.32,0-.45.01-.02.03-.03.05-.04.01,0-.1.19-.08.11.01-.04-.02.21-.02.15,0-.06.15.34.08.23-.16-.24-.09-.57.16-.73.24-.16.57-.09.73.16.16.24.09.57-.16.73-.22.14-.5.1-.68-.09-.06-.06.02.02,0,0l-.08-.08Z"/>
  <path d="M165.86,104.19c0,.47-.38.85-.85.85s-.85-.38-.85-.85.38-.85.85-.85.85.38.85.85"/>
  <path d="M177.25,114.62c-.2-.07-.3-.28-.23-.48.03-.09.09-.16.17-.21.08-.05-.02-.18.43-.11.46.07.49.44.51.57.01.07.02.14,0,.2v.45s0,1.68,0,1.68v2.72s-.13,2.27-.13,2.27l-.25,1.14v-.18s.03.27.03.27c0,.08,0,.15,0,.23l-.16,1.05v-.13s.04.83.04.83v.42s-.03-.12-.03-.12c.01.04-.18-.22-.11-.16.04.03-.26-.12-.18-.09.09.02-.42.02-.31,0,.1-.03.2-.03.3-.01.09.02-.3.02-.24,0,.05-.01-.15.05-.12.04.04-.02-.07.04-.07.04l.16-.17.53-.71.43-.38.7-.5-.1.08,1.14-1.08c.71-.55,1.38-.86,1.86-1.21l.97-.65.54-.4.48-.35c.06-.04.12-.08.18-.11l.45-.21-.11.07.53-.39,1.29-.83.84-.48.19-.11.26-.24.53-.46c.64-.43,1.03-.56,1.29-.75.07-.05.15-.1.23-.13l.76-.37c.29-.14.53-.36,1.02-.24.31.08.49.39.42.7,0,.04-.02.07-.04.11-.15.32-.51.88-.91,1.41-.05.07-.12.14-.19.19-.53.43-.97.59-1.27.8l-.62.39-.48.29-.19.12-.6.43-1.44.8-.6.36.11-.07-.49.35c-.06.04-.12.07-.19.1l-.5.22-.64.31-.9.46c-.63.44-1.29.72-1.81,1.09l-1.27.85.09-.08-.51.58-.28.3-.74.7-.11.18c-.09.12-.2.34-.64.4-.1.01-.2,0-.3-.02-.6-.18-.68-.66-.66-1.03v.13s-.01-.51-.01-.51l.03-.87v.13s-.18-1.08-.18-1.08c-.01-.08-.01-.15,0-.23l.05-.33v.18s-.02-1.09-.02-1.09l.06-2.33.28-2.69.09-1.64c.08-.37.16-.63.33-.87.04-.06.09-.11.14-.15l.1-.07-.04.04s-.14.34-.12.24c.01-.08.04.28.02.22-.03-.09.15.19.11.16l.06.04Z"/>
  <path d="M177.13,114.68c-.29-.04-.5-.31-.46-.6.02-.17.12-.32.27-.4l.13-.1c.06-.06.12-.11.2-.14l.51-.31,1-.81.63-.39,1.74-.95.41-.18-.11.07.86-.75.67-.44.36-.2.28-.25.36-.34.49-.33.8-.51.62-.47,1.57-1.22.91-.69-.1.09.12-.13s.06-.06.09-.09l.14-.12.14-.12s.07-.06.11-.08l.24-.16.14-.1c.06-.04.13-.07.2-.09l.31-.09.24-.03c.1,0,.2,0,.29.03l.29.12c.31.17.42.56.25.86l-.02.05c-.03.09-.09.18-.15.25l-.05.06-.12.15c-.04.06-.09.11-.15.16l-.11.09-.16.16s-.07.06-.1.09l-.16.12-.18.13s-.07.05-.11.07l-.2.1.12-.07-.92.65-1.59,1.18-.72.52-.72.57-.28.22-.5.37-.49.32-.26.18-.63.37-1.18.57.11-.06-.45.27-1.74.83-.46.31-1.15.75-.56.44c-.07.04-.15.07-.23.09l-.52.02Z"/>
  <path d="M176.7,114.38c-.12-.12-.12-.33,0-.45.02-.01.03-.03.05-.04l.03-.03c.16-.18.44-.2.62-.04.18.16.2.44.04.62-.16.17-.42.2-.6.05l-.14-.13Z"/>
  <path d="M191.03,104.72c.24.3.19.73-.11.97-.03.02-.06.04-.09.06-.09.05.31-.35.25-.24-.07.11.1-.43.1-.34,0,.19-.08.37-.22.5-.07.07.18-.27.15-.21-.03.06.06-.18.05-.14-.01.07.01-.16.01-.13,0,.07,0-.03.01.02l.06.21.28,1.07.1.32-.08-.2.2.43c.03.07.04.14.05.21l.03.9-.06,1.9v1.99s-.02,1.82-.02,1.82v.56s.01.16.01.16c0,.06,0,.12,0,.18l-.12.7.02-.12-.02.22c-.01.11-.05.21-.11.31l-.26.33c-.29.28-.75.26-1.02-.03-.09-.1-.15-.21-.18-.34l-.04-.18c-.03-.11-.03-.21-.02-.32l.02-.13v.12s-.05-.59-.05-.59c0-.06,0-.12,0-.18l.02-.22v-.5s.12-1.92.12-1.92l.14-1.94-.05-1.82v-.81c0-.07,0-.15.02-.22l.05-.27v.21s-.06-.27-.06-.27l-.38-1.02-.07-.37v-.26c0-.13-.02-.41.35-.63.16-.1.36-.13.54-.08.28.07.35.2.4.26"/>
  <path d="M190.45,105.45c-.04-.17.07-.34.25-.38.17-.04.34.07.38.25v.15c-.02.09-.21.27-.36.25-.33-.04-.23-.13-.25-.16l-.08-.1c-.11-.14-.09-.34.05-.45.14-.11.34-.09.45.05l.09.12h0s-.1-.07-.06-.05l-.07-.03s-.16,0-.11,0c.09,0-.27.21-.23.14.03-.05-.05.14-.05.12.01-.07,0,.12,0,.1"/>
  <path d="M165.28,104.4c0,.36-.29.65-.65.65s-.65-.29-.65-.65.29-.65.65-.65.65.29.65.65"/>
  <path d="M193.78,96.14c.17-.03.34.08.37.25.03.14-.05.29-.18.35l-.18.09s.06-.08.01-.02c-.13.17-.37.2-.54.06-.17-.13-.2-.37-.06-.54.08-.1.2-.15.32-.15l.25-.04Z"/>
  <path d="M210.14,90.81c-.16.07-.35,0-.42-.16-.07-.16,0-.35.16-.42l.16-.07s-.02-.14.29-.01c.16.07.24.25.17.41-.07.16-.25.24-.41.17-.05-.02.13.02.11.02-.08,0,.09-.01.09-.01l-.14.06Z"/>
  <path d="M206.83,86.32c.02-.26.25-.45.51-.43.22.02.39.18.43.39.05.28-.06.34-.09.39l-.05.08c-.15.22-.45.28-.67.13-.22-.15-.28-.45-.13-.67,0-.01.02-.03.03-.04l.06-.07-.02.03-.03.06s-.04.2-.03.14"/>
  <path d="M206.83,86.96c-.18,0-.32-.14-.32-.32,0-.15.1-.27.24-.31l.22-.09.06-.02-.05.06c.06-.17.24-.25.4-.2.17.06.26.24.2.4l-.05.12s-.07.16-.21.25l-.5.11Z"/>
  <path d="M206.82,86.96s-.06-.05-.08-.07l-.09-.13c-.03-.07-.04-.14-.04-.22l.06-.25v-.03s0,.03,0,.03v.05s-.03.18-.03.11c.01-.34.3-.61.65-.6.34.01.61.3.6.65-.01.34-.3.61-.65.6-.24,0-.46-.16-.55-.38-.03-.07.1.17.08.14-.04-.05.13.12.1.1-.04-.03.13.07.1.06-.07-.03.18.03.14.03-.08,0-.15-.02-.22-.05l-.07-.04Z"/>
  <path d="M207.17,86.39c.17-.04.34.06.38.23.04.17-.06.34-.23.38-.14.03-.29.02-.41-.06h.35s.04-.02.04-.02c-.14.12-.34.1-.46-.04-.12-.14-.1-.34.04-.46.14-.12.34-.1.46.04.09.1.1.25.04.37l.03-.08-.13-.33c.06.04-.1-.03-.1-.03"/>
  <path d="M195.54,95.63c-.33,0-.6-.26-.61-.59,0-.32.25-.59.57-.61l1.69.02h1.26s1.03-.02,1.03-.02l1.76-.08h1.14s1.3-.15,1.3-.15l1.43-.06.56.03h.3s.4-.05.4-.05l.26-.06c.07-.01.13-.02.2-.02,1.01.01,1.92.05,2.81-.03l.56-.1c.06,0,.11-.01.17-.01l1.11.12.37.11.3.02h.37s.62,0,.62,0l.54-.03.23-.05c.06-.01.12-.02.18-.02h1.35s-.18.02-.18.02l.21-.04c.06-.01.11-.02.17-.02h.65s.21-.03.21-.03l.17-.03c.08-.01.15-.01.23,0l.74.06.51.03h-.12s.31-.03.31-.03l.18-.02.24-.02c.13-.01.26,0,.39.04l.73.23c.08.02.15.06.21.12l.11.09c.17.14.2.39.06.57l-.09.12c-.05.06-.11.12-.18.16l-.74.37c-.12.06-.25.09-.38.09h-.22s-.25,0-.25,0h-.31s-.43.04-.43.04l-.74.08c-.08,0-.15,0-.23,0l-.21-.03-.28-.03-.54.02c-.06,0-.11,0-.17-.01l-.21-.03h.18s-1.28.09-1.28.09c-.06,0-.12,0-.18,0l-.38-.05-.53-.02h-.58s-.53-.09-.53-.09l-.46-.04h-.21s-.8.05-.8.05c-.06,0-.11.01-.17.01h-.62c-.94.09-1.91.06-2.9.06-.07,0-.13,0-.2-.02l-.32-.07-.43-.05h-.21s-.51.05-.51.05l-1.23.06-1.58.03-1.04.02-1.84-.08-1-.05h-1.27s-1.63-.07-1.63-.07Z"/>
  <path d="M218.98,84.26c.03-.37.35-.64.71-.61.24.02.45.16.55.37l.11.38c0,.06,0,.13,0,.19l-.1.44-.05.25.05.32c.04,1.25.09,2.46,0,3.63l.02.16.02,2.08.02.28v.56s-.02.26-.02.26l-.08.71c0,.05-.02.11-.04.16l-.18.53c-.05.17-.22.27-.39.22-.07-.02-.13-.07-.17-.13l-.33-.52s-.05-.1-.06-.15l-.16-.65-.04-.38-.06-.46-.02-.36-.1-2.03.07-.49c.11-.98.12-2.15.12-3.34l.06-.6.02-.29.03-.29c0-.07.01-.13.03-.19v-.04Z"/>
  <path d="M219.41,84.46c-.15.09-.35.03-.43-.12-.06-.1-.06-.22,0-.32.14-.24.5-.34.76-.23.22.09.32.33.23.55-.09.22-.33.32-.55.23-.08-.03-.14-.08-.19-.15l.06.04h.12Z"/>
  <path d="M218.83,83.67c-.07-.02-.13-.07-.17-.14-.16-.25-.01-.44.08-.57l.39-.33s.09-.05.14-.07l.68-.23c.22-.09.41-.24.68-.42l.62-.28.23-.22c.46-.32.87-.42,1.12-.52l.24-.18,1.6-1.07.88-.59.46-.27,1.07-.82.57-.44.44-.31,1.29-.87.53-.42.36-.35.51-.43-.09.09.25-.3.18-.18s.09-.08.14-.12l.39-.25-.14.11.18-.16h0s.15-.14.15-.14c.08-.06.16-.1.25-.13l.38-.07-.28.06.22-.06c.46-.08.9.24.98.7.08.46-.24.9-.7.98-.03,0-.07,0-.1.01-.06,0,.17-.03.14-.02l.26-.12c-.06.06-.14.12-.23.16h-.01s-.09.05-.09.05l-.02.03.12-.13-.24.31s-.08.09-.12.14l-.16.14-.36.28.09-.08-.45.44-.57.43-.63.44-1.25.91-.46.28-.53.38-1.27.85-.38.26-.85.54-1.83.98-.49.19c-.29.13-.59.22-.77.34l-.45.27-.43.3c-.29.15-.6.36-1.03.49l-.73.19c-.05.01-.11.02-.16.02h-.33s-.3-.05-.3-.05Z"/>
  <path d="M233.17,74.82c0,.47-.38.85-.85.85s-.85-.38-.85-.85.38-.85.85-.85.85.38.85.85"/>
  <path d="M221.19,95.17c-.25.38-.76.48-1.14.22-.38-.25-.48-.76-.22-1.14.04-.06.09-.12.15-.17.31-.27.83-.6,1.41-.88l1.2-.68.27-.2.34-.28s.08-.06.12-.08l.44-.26.41-.23-.11.08,1.09-.93s.07-.05.1-.07l.86-.52,1.47-1.13,1.17-.76.41-.32.2-.17s.07-.06.11-.08l.31-.2.27-.23.36-.29.39-.24.18-.09.15-.12.24-.31c.05-.06.11-.12.17-.16l.18-.13-.15.13.41-.45.13-.16s.07-.08.11-.11l.17-.15-.1.1.05-.06.09-.1c.1-.11.22-.2.36-.25l.23-.09c.53-.16,1.09.14,1.25.68.05.17.06.35.01.52l-.12.32c-.06.13-.16.25-.27.35l-.07.06-.13.1.11-.09-.16.16s-.08.07-.12.1l-.18.13-.48.37.15-.13-.1.11c-.05.06-.11.12-.17.16l-.53.4-.22.18-.1.09-.21.18-.36.29-.36.33-.29.23s-.07.05-.11.08l-.28.16-.49.3-1.16.67-1.65,1-.79.58s-.07.04-.1.06l-1.22.64.12-.08-.36.29-.46.34s-.08.05-.12.07l-.44.19-.23.15-1.29.77c-.41.26-.85.64-.87.68"/>
  <path d="M221.33,94.71c0,.45-.37.82-.82.82s-.82-.37-.82-.82.37-.82.82-.82.82.37.82.82"/>
  <path d="M231.76,74.02c-.11-.37.1-.76.47-.86.12-.03.24-.04.36,0l.19.07c.08.03.15.08.21.14l.27.24c.08.07.26.19.42.42.14.13.24.35.33.52.33.83.34,1.61.27,2.29-.03.67-.13,1.31-.11,1.84v.85s-.03.97-.03.97v.52s-.07.79-.07.79v.4s-.05.46-.05.46v.26s-.02.33-.02.33v.19s-.02.21-.02.21l-.02.24-.02.21-.02.18v.08c-.02.18-.09.34-.21.48l-.22.25c-.24.26-.64.28-.9.04-.05-.05-.09-.1-.13-.16l-.15-.28c-.08-.16-.11-.33-.09-.51v-.09s.03-.17.03-.17l.02-.18.02-.21.03-.23.03-.21.04-.29.05-.32.03-.36.05-.45.05-.71.05-.56.04-.91.03-.8c.03-.73.2-1.38.28-2,.03-.54,0-1.06-.22-1.56l-.14-.33-.17-.06-.35-.22c-.07-.04-.14-.1-.19-.17-.04-.05-.1-.09-.17-.31"/>
  <path d="M207.84,73.54c-.07-.02-.13-.05-.17-.11-.19-.22-.08-.22-.08-.27l.02-.16c.05-.21.26-.35.47-.3.21.05.35.26.3.47-.02.08-.06.15-.12.21l-.06.05s.04.21-.35.11"/>
  <path d="M195.46,84.12c-.35.17-.77.03-.94-.31-.15-.3-.06-.67.21-.87.38-.28.6-.19.76-.2,1.07.04,2.27-.03,3.46.09.78.06,1.69-.15,2.68-.13.81,0,1.84-.06,2.87-.15l1.45-.07.67-.08s.08,0,.12,0h.3s1.11-.07,1.11-.07l3.56-.05,1.56.03.48-.02,1.33.04h-.13s.3-.03.3-.03l.29-.04.36-.02c.05,0,.11,0,.16,0l.4.04h.25s.24.03.24.03l.21.02c.45.05.78.46.73.91-.04.37-.33.67-.7.72l-.19.03-.2.03-.33.03-.34.06c-.05,0-.11.01-.16.01h-.3s-.36-.02-.36-.02h-.3s.13-.02.13-.02l-1.25.12h-.62s-1.52.07-1.52.07l-3.54-.02-1.25-.09h-.21s-.08,0-.12,0l-.73-.08-1.32-.06c-1.04.04-2.1.07-3,.03-.78-.03-1.72.17-2.76.07-1.03-.07-2.2.04-3.32.04h-.21s.02-.01.02-.01c-.03,0,.21-.08.14-.05"/>
  <path d="M207.96,72.84c.36.06.59.4.53.76-.05.27-.26.49-.54.53-.05,0,.1-.04.1-.04l-.09.1-.48.35-.26.2-.28.25-.42.34-.63.45.09-.08-.7.74-.41.35-.67.47-1.41,1.19-.9.66-.43.44s-.07.07-.11.1l-.41.29-.44.35-.39.29-.25.2-.57.36-.12.11-.36.34c-.73.65-1.46.93-1.97,1.31-.39.33-.73.52-.83.67-.05.08-.08,1.11-.15,2.19-.25,2.53-.1,5.07-.05,7.66l-.07,1.36c-.03.49-.45.86-.93.83-.44-.03-.8-.38-.83-.82l-.09-1.26c-.06-2.61-.24-5.22,0-7.92l.11-1.47c.05-.54.12-1.13.56-1.65.48-.57,1.02-.76,1.29-.94.68-.52,1.35-.78,1.82-1.21l.37-.34.33-.23.46-.35.42-.22.19-.17.41-.4.24-.27s.07-.07.1-.11l.6-.51.98-.68,1.5-1.1.52-.41.36-.32.86-.61-.09.08.61-.54.43-.31.3-.26.34-.26.31-.21c.29-.18.64-.35,1.02-.28"/>
  <path d="M116.4,43.18c.15-.1.35-.06.45.09.06.09.07.21.02.31v-.05s-.06-.18-.03-.12c.03.05-.21-.19-.14-.15.07.04-.25-.05-.19-.05.05,0-.1.01-.09,0h.02s.65-.24.65-.24c.79-.16,1.46.2,2.04.55,1.27.93,2.24,2.28,3,2.76.27.17.38.16.39.15.09-.02-.11.08-.11.07.04-.05.24-.79.43-1.85l.71-2.42,1.17-3.49.52-1.39c.16-.37.23-.64.49-.82.15-.11.37-.08.48.08.05.07.07.15.06.23l-.36,2.23-.61,3.58c-.19.97-.36,1.74-.42,2.32-.15.77-.24,1.39-.44,1.97-.1.29-.23.58-.45.85-.23.28-.58.52-.97.61-.73.14-1.41-.1-1.98-.51-1.21-.86-2.1-2.25-2.93-2.92-.45-.43-.81-.66-.94-.67-.26-.05-.51-.04-.79-.2-.08-.04-.17-.1-.25-.23-.06-.11-.08-.29-.02-.42.14-.32.19-.22.28-.28"/>
  <path d="M100.29,25.96c.05.17-.05.34-.22.39-.15.04-.3-.03-.37-.17-.29-.61-.49-.97-.42-1.42.03-.24.23-.51.46-.63.22-.12.45-.15.67-.16.04,0,.08,0,.12,0,1.05.13,2.54.42,4.25.96,1.77.55,3.74,1.34,5.64,2.47,2.46,1.42,4.62,3.07,6.27,4.83,1.51,1.63,2.53,3.92,3.39,5.67.78,1.6,1.66,2.31,2.26,3.51.82,2.11.11,4.43,1.37,6.16.11.15.08.37-.08.48-.14.1-.33.08-.45-.04-1.75-1.82-1.59-4.63-2.31-5.78-.45-.91-1.4-1.77-2.28-3.61-.85-1.78-1.85-3.95-3.08-5.31-1.48-1.66-3.5-3.27-5.83-4.68-1.78-1.06-3.64-1.82-5.33-2.36-1.63-.52-3.05-.8-4-.93-.04,0-.08-.01-.12-.03l-.25-.06.2-.12c-.02.07-.01.37.12.83"/>
  <path d="M48.18,51.92c.02-.28.26-.49.54-.47.28.02.49.26.47.54-.02.26-.23.47-.5.47h-.09c-.2.05-.4-.09-.43-.29,0-.04,0-.09,0-.13v-.12Z"/>
  <path d="M63.57,40.34c-.04.17-.21.28-.38.23-.17-.04-.28-.21-.23-.38l.08-.18c.1-.14.3-.18.44-.08.14.1.18.3.08.44v-.04Z"/>
  <path d="M45.72,46.48c-.01-.35.26-.64.61-.66.35-.01.64.26.66.61.01.32-.22.6-.53.65-.07.01-.37.08-.63,0-.17-.05-.27-.22-.22-.39.02-.05.04-.1.09-.14l.02-.08Z"/>
  <path d="M60.02,36.69c-.2-.03-.34-.22-.31-.41,0-.03.01.15,0,.1l.03.09s.22.21.13.15c-.1-.07-.17-.19-.18-.31v-.19s.02.2,0,.13c-.03-.26.16-.5.43-.52.26-.03.5.16.52.43.02.21-.1.41-.29.49h-.03s.16-.11.11-.06c-.09.09-.21.13-.34.13-.05,0,.06,0,.06,0h-.14Z"/>
  <path d="M86.21,24.34c-.31.21-.74.12-.94-.2-.2-.31-.12-.72.18-.93l.79-.55.58-.46.14-.16.44-.35s.07-.05.12-.07l.51-.27-.1.07.34-.35.43-.43s.09-.08.15-.11l.44-.22.21-.16-.09.09.78-.89s.07-.07.1-.1l.21-.18.11-.1.2-.15.14-.1.2-.13s.07-.04.11-.06l.1-.04c.15-.06.32-.09.48-.08h.1s.08.02.08.02c.27.04.51.18.67.4h0c.11.15.17.32.18.5v-.07c.03.27-.04.54-.2.76h-.01c-.09.16-.21.28-.35.36l-.03.02s-.07.04-.11.06l-.07.04-.11.06-.08.05-.17.11-.18.14s-.08.06-.12.08l-1.08.62.11-.06-.46.28-.21.15s-.1.07-.16.1l-.42.24-.44.34.1-.07-.51.42s-.07.05-.11.08l-.31.18-.36.2-.59.39-.79.53Z"/>
  <path d="M88.09,14c.34-.07.68.15.75.5.06.29-.09.58-.36.71-.06.03.06-.03.03-.01l-.13.1-1.15.72-1.25.84-.72.52-.64.61-.47.32-1.05.92-.74.58-.2.21-.44.38-.39.37-.15.16-.81.53-.42.23-.28.16-.22.12c-.11.07-.24.11-.37.12h-.12c-.26.06-.53-.08-.62-.34-.07-.17-.07-.36-.04-.54.02-.13.08-.25.16-.35l.25-.26.43-.3.45-.26.44-.31.23-.19.45-.38.34-.3.36-.29.76-.53,1.33-.77.24-.24.71-.64.71-.6,1.44-.87,1-.72c.12-.07.19-.17.48-.22"/>
  <path d="M87.72,14.95c-.1-.14-.07-.34.07-.44.11-.08.25-.08.36-.01.06.04-.21-.03-.17-.04.05,0-.04.02-.04,0l.03-.03c.13-.15.36-.17.51-.03.15.13.17.36.03.51-.02.03-.05.05-.08.07l-.26.11c-.12.03-.33.03-.46-.15"/>
  <path d="M59.98,35.9c.02-.26.25-.45.51-.43.22.02.39.18.43.39.05.28-.06.34-.09.39l-.05.08c-.15.22-.45.28-.67.13-.22-.15-.28-.45-.13-.67,0-.01.02-.03.03-.04l.06-.07-.02.03-.03.06s-.04.2-.03.14"/>
  <path d="M59.98,36.54c-.18,0-.32-.14-.32-.32,0-.15.1-.27.24-.31l.22-.09.06-.02-.05.06c.06-.17.24-.26.4-.2.17.06.25.24.2.4l-.05.12s-.07.16-.21.25l-.5.11Z"/>
  <path d="M48.68,45.2c-.33,0-.6-.26-.61-.59,0-.32.25-.59.57-.61l1.69.02h1.26s1.03-.02,1.03-.02l1.76-.08h1.14s1.3-.15,1.3-.15l1.43-.06.56.03h.3s.4-.05.4-.05l.26-.06c.07-.01.13-.02.2-.02,1.01.01,1.92.05,2.81-.03l.56-.1c.06,0,.11-.01.17-.01l1.11.12.37.11.3.02h.37s.62,0,.62,0l.54-.03.23-.05c.06-.01.12-.02.18-.02h1.35s-.18.02-.18.02l.21-.04c.06-.01.11-.02.17-.02h.65s.21-.03.21-.03l.17-.03c.08-.01.15-.01.23,0l.74.06.51.03h-.12s.31-.03.31-.03l.18-.02.24-.02c.13-.01.26,0,.39.04l.73.23c.08.02.15.06.21.12l.11.09c.17.14.2.39.06.57l-.09.12c-.05.06-.11.12-.18.16l-.74.37c-.12.06-.25.09-.38.09h-.22s-.25,0-.25,0h-.31s-.43.04-.43.04l-.74.08c-.08,0-.15,0-.23,0l-.21-.03-.28-.03-.54.02c-.06,0-.11,0-.17-.01l-.21-.03h.18s-1.28.09-1.28.09c-.06,0-.12,0-.18,0l-.38-.05-.53-.02h-.58s-.53-.09-.53-.09l-.46-.04h-.21s-.8.05-.8.05c-.06,0-.11.01-.17.01h-.62c-.94.09-1.91.06-2.9.06-.07,0-.13,0-.2-.02l-.32-.07-.43-.05h-.21s-.51.05-.51.05l-1.23.06-1.58.03-1.04.02-1.84-.08-1-.05h-1.27s-1.63-.07-1.63-.07Z"/>
  <path d="M72.13,33.84c.03-.37.35-.64.71-.61.24.02.45.16.55.37l.11.38c0,.06,0,.13,0,.19l-.1.44-.05.25.05.32c.04,1.24.09,2.46,0,3.63l.02.16.02,2.08.02.28v.56s-.02.26-.02.26l-.08.71c0,.05-.02.11-.04.16l-.18.53c-.05.17-.22.27-.39.22-.07-.02-.13-.07-.17-.13l-.33-.52s-.05-.1-.06-.15l-.16-.65-.04-.38-.06-.46-.02-.36-.1-2.03.07-.49c.11-.98.12-2.15.12-3.34l.06-.6.02-.29.03-.29c0-.07.01-.13.03-.19v-.04Z"/>
  <path d="M72.56,34.04c-.15.09-.35.03-.43-.12-.06-.1-.06-.22,0-.32.14-.24.5-.34.76-.23.22.09.32.33.23.55-.09.22-.33.32-.55.23-.08-.03-.14-.08-.19-.15l.06.04h.12Z"/>
  <path d="M71.97,33.25c-.07-.02-.13-.07-.17-.14-.16-.25-.01-.44.08-.57l.39-.33s.09-.06.14-.07l.68-.23c.22-.09.41-.24.68-.42l.62-.28.23-.22c.46-.32.87-.42,1.12-.52l.24-.18,1.6-1.07.88-.59.46-.27,1.07-.82.57-.44.44-.31,1.29-.86.53-.42.36-.35.51-.43-.09.09.25-.3.18-.18s.09-.08.14-.12l.39-.25-.14.11.18-.16h0s.15-.14.15-.14c.08-.06.16-.1.25-.13l.38-.07-.28.06.22-.06c.46-.08.9.24.98.7.08.46-.24.9-.7.98-.03,0-.07,0-.1.01-.06,0,.17-.03.14-.02l.26-.12c-.06.06-.14.12-.23.16h-.01s-.09.05-.09.05l-.02.03.12-.13-.24.3s-.08.09-.12.14l-.16.14-.36.28.09-.08-.45.44-.57.43-.63.44-1.25.91-.46.28-.53.38-1.27.85-.38.26-.85.54-1.83.98-.49.19c-.29.13-.59.22-.77.34l-.45.27-.43.3c-.29.15-.6.36-1.03.49l-.73.19c-.05.01-.11.02-.16.02h-.33s-.3-.05-.3-.05Z"/>
  <path d="M86.32,24.39c0,.47-.38.85-.85.85s-.85-.38-.85-.85.38-.85.85-.85.85.38.85.85"/>
  <path d="M74.34,44.75c-.25.38-.76.48-1.14.22-.38-.25-.48-.76-.22-1.14.04-.06.09-.12.15-.17.31-.27.83-.6,1.41-.88l1.2-.68.27-.2.34-.28s.08-.06.12-.08l.44-.26.41-.23-.11.08,1.09-.93s.07-.05.1-.07l.86-.52,1.47-1.13,1.17-.76.41-.32.2-.17s.07-.06.11-.08l.31-.2.27-.23.36-.29.39-.24.18-.09.15-.12.24-.31c.05-.06.11-.12.17-.16l.18-.13-.15.13.41-.45.13-.16s.07-.08.11-.11l.17-.15-.1.1.05-.06.09-.1c.1-.11.22-.2.36-.25l.23-.09c.53-.16,1.09.14,1.25.68.05.17.06.35.01.52l-.12.32c-.06.13-.16.25-.27.35l-.07.06-.13.1.11-.09-.16.16s-.08.07-.12.1l-.18.13-.48.37.15-.13-.1.11c-.05.06-.11.12-.17.16l-.53.4-.22.18-.1.09-.21.18-.36.29-.36.34-.29.23s-.07.05-.11.08l-.28.16-.49.3-1.16.67-1.65,1-.79.58s-.07.04-.1.06l-1.22.64.12-.08-.36.29-.46.34s-.08.05-.12.07l-.44.19-.23.15-1.29.77c-.41.26-.85.64-.87.68"/>
  <path d="M74.48,44.29c0,.45-.37.82-.82.82s-.82-.37-.82-.82.37-.82.82-.82.82.37.82.82"/>
  <path d="M84.9,23.6c-.11-.37.1-.76.47-.86.12-.03.24-.04.36,0l.19.07c.08.03.15.08.21.14l.27.24c.08.07.26.19.42.42.14.13.24.35.33.52.33.83.34,1.61.27,2.29-.03.67-.13,1.31-.11,1.84v.85s-.03.97-.03.97v.52s-.07.79-.07.79v.4s-.05.46-.05.46v.26s-.02.33-.02.33v.19s-.02.21-.02.21l-.02.24-.02.21-.02.18v.08c-.02.18-.09.34-.21.48l-.22.25c-.24.26-.64.28-.9.04-.05-.05-.09-.1-.13-.16l-.15-.28c-.08-.16-.11-.33-.09-.51v-.09s.03-.17.03-.17l.02-.18.02-.21.03-.23.03-.21.04-.29.05-.32.03-.36.05-.45.05-.71.05-.56.04-.91.03-.8c.03-.73.2-1.38.28-2,.03-.54,0-1.06-.22-1.56l-.14-.33-.17-.06-.35-.22c-.07-.04-.14-.1-.19-.17-.04-.05-.1-.09-.17-.31"/>
  <path d="M61.52,23.14c-.35.11-.73-.09-.83-.45-.1-.33.07-.68.39-.81.41-.17.62.01.73.07l.15.09c.25.15,1.18.13,2.29.13l.83.05,1.77.05,1.66-.05,1.69-.12c1.08-.06,1.95-.02,2.93,0l2.91-.03c1.08,0,2.08-.09,3.03-.14l1.38-.11,1.13.05.2-.03.62-.02-.15.02.21-.04c.07-.01.15-.02.22-.02l.86.02h-.2s.21-.02.21-.02l.42-.03.27-.03.14-.02.3-.02h.32s.29.04.29.04h-.17s.1-.01.1-.01c.24,0,.48.07.67.22l.57.5c.22.24.21.61-.03.84-.02.02-.03.03-.05.04l-.52.38c-.2.14-.43.21-.68.2h-.09s.17-.01.17-.01l-.18.02-.27.02h-.3s-.28-.04-.28-.04h-.24s-.27-.01-.27-.01l-.31-.03h.2s-.86.08-.86.08c-.07,0-.15,0-.22,0l-.22-.03h.15s-.56.02-.56.02l-.42-.03h-1.02s-1.36-.07-1.36-.07c-.85.04-1.89.12-3.05.12l-2.95-.03c-.99,0-1.81-.01-2.74.05l-1.84-.03c-.56-.03-1.2-.05-1.83-.15l-1.77-.31h-.65c-1.06.04-2.09.28-2.99-.24l-.18-.13s.11.05.06.03c-.03-.01.19.04.13.03-.06,0,.33-.05.24-.02"/>
  <path d="M60.99,23.11c-.07-.02-.13-.06-.17-.11-.19-.22-.08-.22-.08-.27l.02-.16c.05-.21.26-.35.47-.3.21.05.35.26.3.47-.02.08-.06.15-.12.21l-.06.05s.04.21-.35.11"/>
  <path d="M48.6,33.7c-.35.17-.77.03-.94-.31-.15-.3-.06-.67.21-.87.38-.28.6-.19.76-.2,1.07.04,2.27-.03,3.46.09.78.06,1.69-.15,2.68-.13.81,0,1.84-.06,2.87-.14l1.45-.07.67-.08s.08,0,.12,0h.3s1.11-.07,1.11-.07l3.56-.05,1.56.03.48-.02,1.33.04h-.13s.3-.03.3-.03l.29-.04.36-.02c.05,0,.11,0,.16,0l.4.05h.25s.24.03.24.03l.21.02c.45.05.78.46.73.91-.04.37-.33.67-.7.72l-.19.03-.2.03-.33.03-.34.06c-.05,0-.11.01-.16.01h-.3s-.36-.02-.36-.02h-.3s.13-.02.13-.02l-1.25.12h-.62s-1.52.07-1.52.07l-3.54-.02-1.25-.09h-.21s-.08,0-.12,0l-.73-.08-1.32-.06c-1.04.04-2.1.07-3,.03-.78-.03-1.72.17-2.76.07-1.03-.07-2.2.04-3.32.04h-.21s.02-.01.02-.01c-.03,0,.21-.08.14-.05"/>
  <path d="M61.11,22.41c.36.06.59.4.53.76-.05.27-.26.49-.54.53-.05,0,.1-.04.1-.04l-.09.1-.48.35-.26.2-.28.25-.42.34-.63.45.09-.08-.7.74-.41.35-.67.47-1.41,1.19-.9.66-.43.44s-.07.07-.11.1l-.41.29-.44.35-.39.29-.25.2-.57.36-.12.11-.36.34c-.73.65-1.46.93-1.97,1.31-.39.33-.73.52-.83.67-.05.08-.08,1.11-.15,2.19-.25,2.53-.1,5.07-.05,7.66l-.07,1.36c-.03.49-.45.86-.93.83-.44-.03-.8-.38-.83-.82l-.09-1.26c-.06-2.61-.24-5.22,0-7.92l.11-1.47c.05-.54.12-1.13.56-1.65.48-.57,1.02-.76,1.29-.94.68-.52,1.35-.78,1.82-1.21l.37-.34.33-.23.46-.35.42-.22.19-.17.41-.4.25-.27s.07-.07.1-.11l.6-.51.98-.68,1.5-1.1.53-.41.36-.32.86-.61-.09.08.61-.54.43-.31.3-.26.34-.26.31-.21c.29-.18.64-.35,1.02-.28"/>
  <path d="M215.67,61.76c-.08.16-.27.22-.43.14-.07-.04-.12-.1-.15-.17l-.83-1.61.1.16-.17-.23-.04-.06s.1.12.06.07c-.26-.28-.35-.68-.25-1.05.1-.38.49-.73.79-.83.48-.16.73-.04.92.02.54.17.93.45,1.32.68l2.45,1.5c.66.44,1.07.82,1.08.82l.23.11s-.23-.05-.15-.04c.09.01-.52.04-.37,0,.05-.01-.41.16-.33.12.08-.04-.24.17-.19.13.09-.08-.2.23-.17.19.02-.04-.03.06-.03.05.15-.33.37-2.65.58-4.75l.45-2.67.32-1.72.02-.33c0-.05,0-.1.02-.15l.03-.23c0-.11.03-.21.06-.31l.02-.07c.12-.59.69-.97,1.28-.85.04,0,.09.02.13.03.34.11.58.34.73.56.06.09.11.18.15.28l.15.62c0,.05.01.1.01.15v.6s-.13,1.81-.13,1.81l-.21,2.55c-.16,1.28-.27,2.6-.46,3.76-.09.57-.19,1.08-.37,1.57-.09.25-.2.5-.4.77-.21.28-.6.64-1.18.72-.41.08-.78-.04-1.01-.13l-.43-.2c-.78-.43-1.09-.88-1.42-1.13l-2.31-1.6-.77-.63-.13-.09.06.03s.15.05.1.03c-.04,0,.19.03.14.03-.09-.01.49-.04.35-.01-.15.03.58-.32.45-.21-.3.24-.7.3-1.07.18-.1-.04.34.06.27.06-.14-.01.43-.05.34-.03-.08.02.24-.09.19-.07-.08.04.22-.16.18-.12-.05.05.1-.13.09-.11h0s.05-.2.05-.2c-.05.35.18,1.27-.12,1.86"/>
  <path d="M165.89,54.84c.2,0,.33.15.3.34-.03.15-.16.28-.32.31l-.39.14.02-.02s.12-.24.09-.15c-.01.04.02-.2.02-.14,0,.05-.07-.23-.04-.17.03.06-.18-.19-.13-.15.05.04-.21-.09-.16-.08.09.02-.21-.02-.17-.02.05,0-.06,0-.06,0l.14-.05c.06-.03.13-.05.2-.06,1.72-.3,4.05-2.09,6.31-3.42,2.26-1.33,5.45-2.91,8.37-4.55,3.26-1.83,6.92-3.84,10.67-6.04,2.24-1.33,4.37-2.53,6.39-3.5.96-.46,1.9-.99,3.02-1.21.56-.1,1.05-.08,1.52-.05l.94.1c.25.04.52.06.84.18,1.23.4,1.95,1.49,2.17,2.64.16.82-.06,1.6-.16,2.21l-.05.4c-.12.77-.37,1.69-.57,2.43l-.26.86c-.22.9-.34,1.98-.31,2.67.02.39.07.65.17.82.02.03-.08-.03.08-.02.19.01.56-.04.98-.17,1.36-.4,3.11-1.43,4.93-2.05.61-.23,1.3-.44,1.98-.57.61-.12,1.18-.17,1.72-.1,1.75.29,3.09,1.5,3.88,3,.8,1.6.86,3.13,1.09,4.79l.32,1.27.33.8.28.68.19.44.25.82.18.78.1.44c.01.06.02.12.02.19l-.03.8c0,.05-.01.1-.03.16-.09.35-.21.7-.38,1.03-.03.05-.06.1-.09.15l-.55.6c-.19.17-.44.26-.69.25l-.23-.03c-.05-.01-.1-.04-.14-.07-.19-.11-.31-.3-.32-.52l-.06-.3s-.02-.1-.03-.15l-.13-.54s-.03-.1-.04-.14l-.12-.5c-.02-.06-.03-.12-.04-.18l-.06-.39-.16-.56-.21-.68-.14-.54-.19-.68-.25-.95c-.15-.48-.3-1.01-.38-1.54-.25-1.72-.33-2.95-.95-4.13-.5-1-1.64-1.85-2.23-1.96-.2-.04-.46-.06-.82,0-.51.07-1.07.19-1.59.35-1.4.48-3.17,1.52-5,2.06-.6.18-1.23.31-1.86.28-.65-.03-1.37-.31-1.72-.91-.3-.53-.37-1.1-.39-1.61-.03-.98.14-2.17.43-3.25l.27-.9c.23-.73.5-1.62.63-2.25l.07-.39c.13-.66.25-1.26.2-1.6-.11-.6-.66-1.3-1.09-1.45l-.41-.04-.84-.08-.89.04c-.66.11-1.45.49-2.45.95-1.94.88-4.04,1.99-6.27,3.26-3.79,2.19-7.48,4.19-10.74,5.99-2.99,1.65-6.2,3.21-8.37,4.45-2.12,1.21-4.53,3.18-7.02,3.57-.07.01-.14.01-.2,0-.24-.02-.48-.06-.67-.26-.08-.08-.16-.19-.16-.36,0-.16.08-.38.23-.51.24-.21.32-.17.38-.18l.86-.05Z"/>
  <g>
    <rect class="cls-2" x="148.94" y="122.16" width="19.04" height="4.85" transform="translate(-42.75 112.57) rotate(-34.76)"/>
    <path d="M151.79,133.27c-.37-.07-.62-.44-.54-.81.06-.28.27-.49.55-.54l.19-.07.41-.24.51-.37,1.03-.69.26-.26.19-.22.38-.37.4-.31.39-.24,1.13-.84,1.01-1.04.92-.98s.07-.07.11-.09l1.46-.94.91-.69.61-.48s.1-.07.15-.1l.46-.27-.1.07c.46-.37.96-.83,1.63-1.24l1.31-.67.2-.16.2-.2.23-.21.22-.17.19-.14s.08-.05.13-.07l.24-.11-.12.05.11-.06c.1-.05.21-.08.32-.1l.32-.02c.56,0,1.01.47,1,1.03,0,.29-.13.56-.34.75l-.08.07c-.08.08-.17.14-.27.19l-.04.02.11-.07-.1.08s-.08.06-.12.08l-.12.07-.1.07-.11.09-.42.33-.42.25-1.2.69c-.51.29-.97.67-1.52,1.07l.1-.08-.48.43s-.1.07-.15.1l-.71.4-1.16.6-1.19.82s-.08.06-.12.08l-.99.66-1.23.98-1.24.85-.26.21-.24.22-.33.32-.32.28-.4.32-.98.73-.63.42c-.11.08-.29.28-.68.41-.24.05-.34.13-.68.06"/>
    <path d="M152.23,132.89c-.07.13-.21.2-.36.17h.04s.15-.02.09,0c-.19.04-.39-.08-.43-.27-.04-.19.08-.39.27-.43.19-.04.39.08.43.27.03.14-.02.28-.14.37-.05.04.08-.09.07-.07l.02-.03Z"/>
    <path d="M164.72,117.3c-.38,0-.68-.31-.68-.69,0-.25.14-.48.36-.6.28-.15.57-.09.72-.02l.31.2s.06.06.09.09l.23.27.65.6s.06.07.09.1l.21.34.23.36.14.2c.14.26.17.46.21.59,0,.02.15.13.33.51.02.05.04.11.06.16l.06.65.05.45.06.21c.01.06.02.12.02.18l-.07.79s-.02.08-.03.12c-.14.39-.37.76-.67,1.03-.15.13-.38.12-.51-.03-.08-.09-.11-.21-.08-.33.06-.25.04-.49-.03-.75,0-.04-.02-.08-.02-.12l-.09-.59c-.01-.06-.02-.12-.01-.19v-.29s-.05-.41-.05-.41l-.07-.19c-.03-.05-.05-.11-.07-.16-.03-.11-.18-.32-.26-.73l-.06-.19-.12-.17-.24-.28-.15-.15s-.06-.06-.09-.1l-.64-.76-.16-.16s-.06-.06-.08-.1v-.02s.14.1.09.07c-.06-.03.41.08.29.08"/>
    <path d="M148.19,128.43c.01-.08.05-.16.1-.23.24-.31.25-.19.31-.21l.39-.14.23-.07c.07-.02.14-.02.21-.02l.55.11c.07.02.13.05.19.09l.7.57-.11-.08c.39.25.64.62.8.91l.11.3c.03.06-.04-.05,0-.02l.19.2c.22.24.36.52.46.78.23.54.17,1.05.18,1.36,0,.06,0,.13-.02.19l-.11.51.02-.13c-.06.7-.47,1.24-.94,1.6-.46.35-1,.56-1.52.69l-.54.13c-.06.01-.12.01-.18,0l-.3-.05c-.24-.05-.4-.29-.35-.54.03-.12.1-.22.2-.29l.22-.14c.05-.03.11-.06.17-.07l.45-.13c.81-.29,1.4-.79,1.39-1.25v.13s-.09-.49-.09-.49c-.01-.06-.02-.13-.01-.19.02-.39.04-.64,0-.78l-.17-.32s-.17-.09-.36-.38l-.19-.37c-.11-.29-.15-.36-.26-.44l.11.07-.55-.26c-.07-.02-.13-.05-.19-.09l-.14-.07c-.07-.02-.13-.06-.19-.1h-.02s-.35-.14-.35-.14l-.2-.14c-.07-.06-.24-.09-.17-.48"/>
    <path d="M148.75,128.05c.22.02.38.22.35.44,0,.05-.02.1-.05.15-.01.02.05-.15.04-.1v-.09s-.06-.23-.03-.16c.1.22,0,.47-.21.57-.22.1-.47,0-.57-.21-.1-.22,0-.47.21-.57.13-.06.28-.05.4.02.08.05-.13-.05-.12-.05h-.03Z"/>
    <path d="M148.34,128.35c.15.09.2.28.12.43-.05.1-.16.16-.27.16l-.17.07s-.09.09-.15.12l-.16.16-.08.23-.24.97-.09.41-.14.92.05.22.15.24.11.12s.06.05.09.08l.15.12.12.02.41.26c.33.35.34.51.34.51h.13s.26,0,.26,0c.07,0,.13,0,.2.02l.48.14c.17.06.26.26.2.43-.02.05-.04.09-.08.12l-.43.36c-.06.04-.12.07-.18.09l-.42.09c-.36.05-.85.03-1.25-.34l-.18-.19-.02-.02.06.05-.12-.09-.35-.13-.36-.18s-.07-.05-.1-.07l-.32-.35c-.21-.37-.29-.67-.3-.95-.02-.32.05-.53.09-.7,0-.27.02-.67.12-1.04l.24-.52.43-.96.19-.37c.09-.17.25-.37.5-.51.06-.03.12-.05.18-.06.27-.04.54.02.77.15"/>
    <path d="M164.41,116.65c.32.01.57.29.56.61-.01.27-.21.5-.47.55-.09.02.22-.09.18-.07-.05.03.08-.06.07-.06l-.14.15-.25.26-.43.3-.39.28-.45.34-.83.57-.63.42-.7.42-.5.46-.69.46-.25.19-.35.33-.73.51-.62.3-.76.56-1.6,1-.86.52-.49.28-.29.18-.16.13-.84.63-1.19.84-.58.33-.57.35-.35.33c-.06.05-.12.1-.19.14l-.54.29.18-.14-.16.17-.27.25-.07.07c-.13.12-.29.2-.46.23l-.3.06c-.08.02-.16.03-.24.02l-.29-.02c-.21,0-.38-.19-.38-.4,0-.01,0-.03,0-.04l.02-.27c0-.08.02-.16.05-.23l.14-.34c.07-.16.18-.3.32-.4l.1-.07.24-.15.31-.18-.19.14.51-.46c.06-.05.13-.1.2-.13l.56-.28.48-.34.59-.36,1.16-.66.88-.59.32-.17.28-.17.4-.28.9-.57,1.5-.97,1.01-.56.43-.29.7-.38.46-.29.18-.17.57-.47.81-.47.56-.43.69-.44.83-.5.47-.31.39-.29.22-.17.33-.26.09-.09c.06-.06.1-.23.51-.21"/>
  </g>
  <g>
    <polygon class="cls-2" points="210.14 90.36 188.85 105.13 181.93 104.22 207.63 86.75 210.14 90.36"/>
    <path d="M192.82,96.72c-.02-.1-.02-.2,0-.3.13-.51.24-.39.31-.44l.18-.11c.08-.04.17-.07.27-.08l.69-.03c.53.07.84.35,1.04.59.22.24.36.51.47.75.16.29.26.64.32.97,0,.05.01.11.01.16l-.05.67v.61s.01.25.01.25c0,.12,0,.23-.04.34-.09.26-.19.54-.4.77-.23.27-.64.29-.9.06-.11-.09-.18-.22-.21-.36l-.14-.51c-.03-.11-.04-.23-.03-.34l.03-.3-.02-.6-.04-.47c0-.05-.01-.11,0-.16l-.06-.47-.18-.32-.04-.04s.13.03.08.03l-.43-.02c-.09,0-.19-.02-.28-.05l-.2-.09-.15-.1c-.06-.05-.17-.05-.24-.41"/>
    <path d="M210.07,90.03c.24-.07.49.08.56.32.03.11.02.23-.04.33-.11.21-.19.24-.27.32l.13-.22v.11c0,.2-.1.39-.25.52l-.2.21-.24.27-.4.39-.54.36-1.12.98-.88.72-.32.31-.56.44-.76.53-.81.72-2.23,1.48-1.03.63-1.3.84-.63.36-.52.29-.4.28.15-.13-.19.19-.53.45s-.1.08-.15.11l-1.36.8-.24.17-.36.27c-.62.42-1.13.64-1.53.89l.12-.09-.31.29c-.06.05-.12.1-.18.13l-.61.28-.79.42-.28.22s-.07.05-.11.07l-.27.13-.24.16-.66.41-.23.15s-.08.04-.12.05l-.36.1c-.17.03-.34,0-.48-.1l-.1-.06c-.18-.12-.25-.35-.17-.56.02-.16.12-.31.25-.41l.13-.11s.06-.06.1-.08l.16-.13.41-.48.39-.35.2-.15s.07-.06.1-.08l.35-.24.83-.63.37-.25c.06-.05.12-.09.19-.12l.4-.21-.13.08,1.4-.89.44-.29.5-.26,1.11-.78c.05-.04.11-.07.17-.09l.76-.28.36-.04-.2.05.43-.18.36-.28.7-.41,1.24-.79,1.05-.63,2.03-1.54,1.04-.58.58-.49.58-.4.56-.29.85-.51,1.29-.96.34-.3.28-.31.13-.22.12-.31c.08-.18.24-.32.43-.38l.43-.07-.25.06.35-.16Z"/>
    <path d="M206.96,86.01c.26-.1.56,0,.71.24.05.08-.23-.22-.17-.18.05.03-.15-.07-.12-.06.05.02-.1-.03-.09-.03l.81.08c.44.06.75.29.97.45.07.05.13.11.17.18l.15.26-.09-.12.26.2c.38.24.36.66.38.74l.09.42-.1-.2.08.1c.05.06.09.13.12.2l.09.21.12.32-.18-.28.06.06s.09.1.12.15l.1.17.12.28c.04.1.06.21.05.32l-.03.3c-.04.36-.37.61-.73.56-.14-.02-.27-.08-.37-.17l-.14-.12c-.09-.07-.16-.15-.21-.25l-.07-.14-.11-.25c-.03-.06-.04-.12-.05-.19v-.08s.11.31.11.31l-.16-.24-.18-.36c-.03-.07-.05-.15-.06-.22l-.02-.21.05.22-.16-.59v-.33s0,.04,0,.04c-.01-.04.13.21.08.15l-.24-.15.12.09-.21-.13c-.07-.04-.14-.09-.2-.15l-.25-.23-.53-.15-.28-.09-.2-.12c-.05-.04-.13-.1-.19-.28-.07-.2.14-.66.35-.74"/>
    <path d="M206.66,86.18c.17-.35.59-.5.94-.34.35.17.5.59.34.94-.05.1-.12.19-.21.26-.34.26-.33.16-.41.19l-.7.37-.69.43-.24.19-.66.5-.41.32-.37.24-.73.45-.36.24-.34.34-.43.33-.8.49-1.19.86-1.54,1.07c-.6.36-1.1.63-1.56.97l-.65.6-.85.56-.28.24c-.62.52-1.13.77-1.68,1.13l-.34.21-.9.57-.28.18-.25.2-.39.27-1.29.81-1.84,1.08-.37.29-.41.31s-.1.07-.15.09l-.91.42-.22.12-.76.57-.4.32-.29.25-.4.32-.46.37-.47.35s-.07.05-.12.07l-.29.18-.22.16s-.1.08-.16.1l-.32.19-.19.12c-.07.04-.02.18-.45.1-.13-.02-.24-.09-.32-.2-.31-.41-.11-.46-.08-.56.07-.28.22-.54.39-.79.04-.05.08-.1.13-.14l.32-.24.2-.23s.07-.06.1-.09l.45-.31.44-.39.47-.3.24-.2.51-.36.96-.55.2-.15.73-.59s.1-.07.15-.1l.45-.23.56-.26,1.73-1.06,1.12-.8.44-.29.47-.2.29-.14.81-.5.26-.19c.67-.43,1.11-.63,1.61-1.04l.35-.27.88-.56.79-.47c.47-.38,1.01-.69,1.54-1.04l1.65-.98,1.14-.87.75-.5.23-.21.53-.43.4-.29.87-.48.24-.13.37-.29.65-.5.31-.23.71-.49.68-.49.19-.12h-.02s-.06.07-.06.07c.03-.03-.14.23-.11.16"/>
  </g>
  <g>
    <rect class="cls-2" x="47.67" y="40.93" width="15.24" height="4.64" transform="translate(-14.91 43.11) rotate(-37.92)"/>
    <path d="M63.94,40.49c-.24.29-.67.33-.96.09-.27-.23-.32-.63-.12-.92l.85.98c-.1.04.18-.11.16-.09-.04.03.08-.08.07-.06-.06.06.02-.02,0,.01l-.11.12-.26.24-.78.63-.66.72s-.06.06-.09.09l-.8.6-.53.51-.91.72-.87.7-.45.34.09-.08-.29.27-.23.22-.49.38-.95.54-.71.52-.07.09-.39.3c-.09.06-.18.1-.28.11l-.12.02.12-.03-.23.09-.19.08-.27.19.11-.1-.12.15-.57.68-.95.78-.7.62-.62.48-.76.61-.7.59-.5.43-.04.04c-.05.05-.12.09-.18.13l-.15.07h-.01c-.05.04-.11.06-.17.08l-.11.03.12-.05-.06.03c-.3.18-.7.09-.88-.22-.13-.22-.12-.51.03-.72l.05-.07-.07.11.06-.13c.03-.06.06-.11.1-.15l.05-.06.06-.08c.04-.06.09-.11.15-.16l.06-.05.44-.41.7-.64.74-.65.66-.49.75-.6.88-.61.83-.49.28-.11-.13.07.39-.26.08-.08.21-.18-.09.09.05-.08c.06-.09.13-.16.22-.21l.26-.17.28-.14.76-.51.62-.57.49-.38.33-.22.23-.17-.09.08.34-.39.97-.83.8-.66.66-.55.64-.61s.06-.06.09-.08l.9-.66.68-.55.17-.15.02-.03-.02.03-.02.04-.02.05s-.04.22-.03.14c.04-.38.38-.65.76-.6.38.04.65.38.6.76-.02.14-.08.28-.18.38-.05.06.02-.02-.02.02"/>
    <path d="M60,35.55c.36-.07.72.16.79.53.06.28-.07.56-.32.71-.02.01.06-.05.03-.02l.14-.17-.15.21c-.06.09-.14.17-.24.22l-.22.13-.4.21-.53.31-.15.12-.33.24-.22.13-.46.25-.51.38-.4.26-.51.43-.96.75-.93.57-.52.46-.91.65-.49.54c-.39.4-.75.65-1.06.85l-.89.7-.57.42-.22.19-.2.18-.26.22.12-.13-.17.2-.16.17-.15.17-.16.19c-.08.1-.18.18-.29.24l-.36.18.16-.09-.59.36.11-.08-.27.23-.11.11-.3.26.02-.02c-.14.19-.34.33-.57.4h-.03c-.53.16-1.08-.15-1.23-.68-.03-.11-.04-.23-.03-.34v-.1c.04-.24.15-.46.33-.62l.07-.06.08-.07.11-.08.37-.23.27-.14.32-.16-.12.07.46-.34-.13.13.16-.21c.08-.1.17-.19.28-.25l.2-.12.3-.17.22-.12.19-.08-.15.09.23-.18.29-.2.35-.22.49-.32c.19-.18.47-.51.91-.82.33-.21.57-.38.81-.62l.79-.65.77-.6.67-.53.99-.62.97-.52.55-.43.39-.29.61-.39.31-.29.13-.12.43-.27.33-.16.46-.29.18-.18.18-.18c.08-.08.17-.14.27-.18l.37-.1-.21.06.25-.08Z"/>
    <path d="M60.11,35.59c.26-.1.56,0,.71.24.05.08-.23-.22-.17-.18.05.03-.15-.07-.12-.06.05.02-.1-.03-.09-.03l.81.08c.44.06.75.29.97.45.07.05.13.11.17.18l.15.26-.09-.12.26.2c.38.24.36.66.38.74l.09.42-.1-.2.08.1c.05.06.09.13.12.2l.09.21.12.32-.18-.28.06.06s.09.1.12.15l.1.17.12.28c.04.1.06.21.05.32l-.03.3c-.04.36-.37.61-.73.56-.14-.02-.26-.08-.37-.17l-.14-.12c-.09-.07-.16-.15-.21-.25l-.07-.14-.11-.25c-.03-.06-.04-.12-.05-.19v-.08s.11.31.11.31l-.16-.24-.18-.36c-.03-.07-.05-.15-.06-.22l-.02-.22.05.22-.16-.59v-.33s0,.04,0,.04c-.01-.04.13.21.08.15l-.24-.15.12.09-.21-.13c-.07-.04-.14-.09-.2-.15l-.25-.23-.53-.15-.28-.09-.2-.12c-.05-.04-.13-.1-.19-.28-.07-.2.14-.66.35-.74"/>
    <path class="cls-1" d="M95.27,16.77c-.18.02-.35-.11-.37-.29-.02-.18.11-.35.29-.37.07,0,.14,0,.2.04l.13.1c.11.13.1.33-.03.45-.08.07-.19.09-.29.06h.08ZM95.58,16.37c.06.28-.12.56-.4.63-.28.06-.56-.12-.63-.4-.06-.28.12-.56.4-.63.15-.03.31,0,.43.1l.11.12s.04.06.05.09l.03.1ZM95.01,18.12c-.32.42-.93.5-1.35.17-.42-.32-.5-.93-.17-1.35.1-.13.24-.24.4-.3.08-.03-.2.12-.17.09.05-.04-.07.06-.07.06l.2-.25.22-.24.04-.05c.07-.08.14-.14.23-.19.18-.1.37-.19.61-.21.37-.03.7.24.74.61,0,.09,0,.17-.03.26l-.08.3c-.02.1-.07.19-.12.27l-.05.08-.06.12c-.11.2-.1.31-.34.63M94.65,16.87c-.51-.15-.79-.69-.64-1.19.15-.51.69-.79,1.19-.64.51.15.79.69.64,1.19-.04.12-.1.23-.18.33-.07.09.15-.25.13-.2-.04.09.07-.22.06-.18-.02.07.02-.14.02-.12,0,.06,0-.05,0-.02v.14s-.05-.43-.05-.43c.21.66-.02.75-.07.87l-.16.42-.27.57-.1.21s.06-.28.05-.2c-.07.58-.6,1-1.18.93-.58-.07-1-.6-.93-1.18.01-.1.04-.2.08-.3l.06-.12.13-.27.31-.55.23-.37.1-.15s-.09.22-.06.13l-.04.43s.05.17.03.12c0-.03.08.16.05.11-.02-.03.13.18.08.13-.02-.03.17.17.11.12-.03-.03.17.13.12.09-.05-.04.38.16.25.12M89.68,14.57c-.1-.48.22-.95.7-1.05.31-.06.63.04.84.28.1.11-.34-.23-.27-.2.06.03-.17-.06-.14-.05.05.01-.09-.02-.08-.02h.2c.06.02.11.03.16.04.4.11.68.32.93.54.53.46.68.99.83,1.28l.19.28.25.34-.1-.12.3.34c.22.37.24.64.25.77,0,.05.01.11.01.16v.29s-.05-.29-.05-.29c0,.01-.08-.14-.05-.09.06.1.11.21.14.32,0,.04-.09-.22-.06-.16.04.07-.31-.34-.2-.25.14.12.25.28.3.47.04.12-.32-.48-.22-.37l-1.26-.1c.06-.04-.16.15-.13.12.08-.09-.14.24-.12.19.12-.28.36-.5.65-.59.11-.03-.26.14-.22.11.05-.04-.06.05-.05.04l.09-.1.29-.29.16-.23.16-.19-.13.22.14-.33s.04-.07.07-.11l.31-.35c.3-.33.73-.27.81-.27h.21s-.22.04-.22.04c.08-.02-.2.1-.17.08l-.04.03c.06-.05.12-.1.2-.14.12-.06-.32.28-.26.21.05-.06-.13.19-.1.15.04-.07-.07.17-.06.14.02-.07-.1.08.12-.26.06-.09.12-.16.2-.23.03-.02,0-.05.28-.18.49-.21,1.05.02,1.26.5.21.49-.02,1.05-.5,1.26,0,0-.02,0-.02,0-.07.03.19-.1.16-.08-.05.03.07-.05.06-.05l-.05.04c-.08.06-.17.11-.27.15-.08.03.23-.12.18-.09-.08.05.2-.17.17-.13-.05.05.07-.08.07-.08l-.12.14c-.1.1-.32.26-.65.27-.08,0-.16,0-.24-.02-.06-.01.05,0,0,0l-.27-.07.21.05-.28-.04-.15-.04s.18,0,.12,0c-.06,0,.31-.11.23-.06h.05s-.06.05-.09.08l-.12.12.13-.22-.06.15-.13.35-.07.29c-.03.12,0,.27-.22.64-.16.26-.42.44-.73.49-.28.04-.73.02-1.04-.39l1.24.23c-.11.07-.27.13-.46.14-.19.01-.38-.03-.54-.12-.32-.18-.45-.43-.52-.62-.04-.11-.06-.23-.06-.34l.04-.35v.29s-.04-.29-.04-.29c0-.05,0-.11,0-.16v-.13s.04.14.02.08l-.04-.09.09.13-.29-.33-.36-.52-.42-.71-.22-.14c-.05-.01-.11-.03-.16-.05l-.12-.04-.27-.14c-.13-.09-.33-.27-.39-.6M90.51,13.2c.24-.3.69-.35.99-.11.24.19.33.51.22.79-.13.35-.24.4-.31.49l-.19.24h0s.08-.23.06-.14c-.02.09-.03-.46,0-.34.1.4-.14.81-.54.92-.4.1-.81-.14-.92-.54-.01-.05-.02-.1-.02-.15-.02-.3.13-.49.19-.57l.07-.08.19-.23.28-.28ZM90.87,13.91c.4.15.6.6.44,1-.15.4-.6.6-1,.44-.4-.15-.6-.6-.44-1,.08-.2.23-.35.42-.43.07-.03-.16.09-.13.07.05-.03-.11.08-.09.07.06-.05-.06.06-.06.06l.13-.15.15-.21.13-.22.04-.11-.05.38v-.05s0,.04,0,.04l.02.06s.13.23.07.15c-.2-.3-.12-.71.18-.91.3-.2.71-.12.91.18.2.3.12.71-.18.91-.2.13-.46.15-.68.03-.11-.06.29.08.23.07-.09-.01.25-.02.2,0-.07.01.21-.08.16-.06-.04.02.12-.09.1-.07l.19-.33-.05.21-.08.34-.15.38s.02-.09,0-.04c0,.03,0-.24,0-.16,0,.05-.08-.29-.05-.2.02.05-.15-.24-.1-.17.03.04-.16-.16-.11-.12.05.04-.34-.18-.23-.14M92.14,14.78c-.36.18-.81.03-.99-.33-.18-.36-.03-.81.33-.99.04-.02.07-.03.11-.04.09-.03-.23.13-.19.09.07-.05-.11.11-.1.09l.11-.18.23-.47.49-.81.22-.32.03-.06.08-.11s.05-.16.38-.23c.37-.09.74.22.81.4l-.06-.11c.34.49.13.66.1.81-.08.35-.22.53-.32.68l-.67.78-.42.37-.71.54-.32.25-.13.09c-.06.04-.06.14-.45.18-.43.04-.82-.27-.86-.7-.03-.33.14-.64.44-.79.06-.03-.12.08-.1.06.05-.04-.03.03,0,0l.12-.11.28-.26.57-.54.34-.33.55-.55.29-.28.09-.12s-.04.09,0,.02l-.04.11s-.03.18-.02.12c0-.03,0,.18,0,.13,0-.05.08.27.05.2-.03-.08.2.28.14.22-.06-.06.27.18.2.15-.07-.03.24.07.18.06-.1-.02.31-.01.25,0-.11.02.25-.1.21-.08-.07.04.13-.1.11-.08-.04.04.02-.03,0,0l-.09.19-.37.77-.39.63-.06.13c-.05.09-.06.24-.4.41M94.55,16.41c-.11.2-.36.28-.56.18-.2-.11-.28-.35-.18-.55l.04-.17.09-.57v.14s-.03-.19-.03-.19l-.08-1.31v-.94s.02-1.03.02-1.03l.02.1.04.08s.12.15.08.11c-.07-.07.44.21.31.18-.1-.02.33,0,.26,0-.1.02.22-.08.19-.07l.04-.02-.17.13-.16.34-.25.89-.04.39c0,.06,0,.11-.02.16l-.08.44v-.12s.01.44.01.44c0,.08,0,.17-.03.25l-.09.37.02-.13.03.4-.09-.21s-.17-.15-.11-.11c.05.04-.34-.11-.24-.1.08.01-.31.04-.24.02.11-.03-.27.17-.22.13.04-.04-.08.12-.07.09l-.03.07v-.07s0-.42,0-.42l.02-.57-.07-1.06v-1.1s.06-.83.06-.83v-.07s.02.11,0,.06c0-.03.06.2.04.13-.01-.03.1.18.06.13-.03-.05.26.26.17.19-.04-.03.23.12.16.1-.06-.03.3.07.22.06-.08,0,.32-.03.24-.02-.07.02.24-.1.19-.07-.1.05.24-.2.2-.16-.07.08.12-.18.1-.15-.02.05.04-.09.03-.08v.02s.02-.32.02-.32c.08.51-.12.58-.19.69l-.18.26c-.25.32-.42.4-.48.45l-.1.18-.44.66c-.04.07-.08.13-.13.18l-.27.33-.19.24c-.06.07-.12.13-.2.18-.03.02.06.05-.31.14-.1.02-.2.03-.3.01-.6-.09-.59-.35-.66-.51-.04-.08-.06-.17-.07-.26-.04-.3.02-.45.06-.6l.25-.68c.03-.07.07-.13.12-.19l.62-.7.63-.42.24-.14.28-.21.08-.05s-.06.06-.02.02l-.17.27.1-.21c.03-.05.06-.15.3-.27.12-.06.35-.12.59-.03.23.09.36.27.42.38.15.32.07.31.07.35l-.02.22-.03.76-.06,1.08-.14,1.16-.03.47-.1.6-.02.22c-.01.07-.03.24-.27.41-.26.18-.62.09-.77-.02l.21.1c-.51-.13-.66-.5-.8-.92l.05.12-.21-.49c-.03-.08-.04-.16-.05-.25v-.54s0,.12,0,.12l-.06-.56c0-.05,0-.11,0-.16l.1-.61c.11-.47.27-.89.47-1.26.3-.45.63-.76,1.03-.89l.34-.1c.1-.04.47-.13.79.17.3.29.25.52.24.67l-.04,1.08-.09.94-.24,1.29-.1.26.03-.13-.07.64-.12.41ZM95.56,15.86c0,.3-.25.54-.55.54-.3,0-.54-.25-.54-.55,0-.1.03-.2.08-.28l.02-.08.08-.71.07-.59.05-.72.04-1.21v-.54s-.02-.41-.02-.41l.03.11s.09.11.06.08c-.05-.05.33.17.23.14-.1-.03.37-.01.29,0,.05-.01.23-.12.21-.11l.02-.02-.08.19-.1.46-.3,1.39-.26,1.53-.07.54v.33c0,.09,0,.18-.03.26l-.05.17c-.02.06.05.06-.16.3-.08.09-.18.16-.3.2-.55.17-.65-.1-.76-.22l-.22-.33c-.04-.08-.06-.17-.07-.26v-.59s0-.55,0-.55l.27-1.69.41-1.49.31-.63c.06-.15.17-.35.38-.53.22-.15.44-.25.74-.2.11-.01.37.13.49.29.11.15.15.29.17.42l.06.54v.64s-.11,1.28-.11,1.28l-.13.78-.08.57-.2.87v.07ZM95.65,15.37c.29,0,.53.24.53.54,0,.29-.24.53-.54.53-.29,0-.53-.24-.53-.54,0-.22.14-.42.35-.5.08-.03-.14.07-.12.06.06-.04-.09.09-.08.07l-.02.02-.06.17.06-.41.08-.65.14-1.38v-.28s.04-.19.04-.19v.05c0,.07.09.24.06.19-.03-.06.27.23.18.18l.14.06c-.06-.02.2.02.15.02-.07,0,.17-.03.14-.02-.07.02.11-.06.09-.04-.04.03-.08.06-.12.08-.04.02.12-.1.1-.08v.02s-.21.72-.21.72l-.19.92-.19.83-.02.17c0,.06.08-.05-.07.26-.08.17-.24.3-.42.34-.31.07-.45-.05-.54-.11-.27-.21-.23-.31-.24-.38l-.04-.4-.04-.86.19-1.12c.12-.42.23-.77.43-1.09.19-.3.51-.53.82-.58.05,0,.1,0,.14,0l.35.08c.15.07.39.25.44.55l-.04-.15c.1.25.05.41.03.51l-.05.2-.17.38-.31,1.28-.06.61.03.27-.07-.16-.02-.02s-.11-.08-.07-.06l-.08-.04s-.3-.04-.19-.04M96.35,12.45c.06,0,.11,0,.17.02l.2.1c.11.09.19.22.21.36l.03.35-.05.53-.21,1.14-.2.61-.25.52-.06.11-.18.21c-.09.06-.28.17-.53.08-.26-.09-.33-.28-.35-.35-.11-.3.04-.62.34-.73.15-.05.31-.05.45.02.04.02-.2-.06-.14-.05.06.01-.25,0-.18,0,.06,0-.24.09-.19.06.11-.06-.24.24-.21.18.03-.04-.06.12-.05.1.03-.07-.02.07-.02.07l.08-.26.11-.34.13-.51.22-1.05.12-.46.06-.29c.04-.14.13-.26.25-.33.05-.03.08-.08.28-.08M96.66,15.16c0,.05-.02.1-.04.15-.15.33-.38.27-.5.25l-.24-.11c-.06-.05-.11-.11-.15-.19-.12-.26-.06-.38-.06-.49l.07-.67.08-.4.08-.54v-.13s0-.02,0-.02v.04s.03.07.03.07l.04.07s.22.2.13.14c-.22-.16-.27-.46-.11-.67.16-.22.46-.27.67-.11.22.16.27.46.11.67-.03.04-.06.07-.1.1-.07.05.12-.14.1-.11-.03.04.05-.09.04-.08-.02.05.02-.05.01-.04l-.04.21-.05.56-.07.37-.02.54v.19s-.05-.11-.02-.04c.02.08.03.16.01.24,0,.03.01-.11,0,0M96,12.4c-.06.24-.3.39-.55.34-.12-.03-.23-.11-.29-.22-.08-.14-.09-.27-.09-.39l.02.16c-.03-.11-.05-.27.04-.45.09-.19.31-.36.56-.39.12-.01.23,0,.34.06.35.16.39.39.45.52l.12.35c.13.55.2,1.12.24,1.66l-.03.73-.04.34c-.07.23-.29.57-.69.41-.21-.09-.32-.33-.23-.54,0-.01,0-.02.01-.03.03-.05-.04.14-.04.12,0-.06,0,.08,0,.07l-.09-.28-.15-.64-.3-1.42-.08-.34v-.02s.03.06.03.06c-.02-.03.16.16.11.11-.09-.07-.16-.17-.21-.28-.01-.03.09.15.06.11-.05-.06.35.21.24.17-.06-.02.24.02.18.02-.06,0,.21-.07.17-.04l.13-.1s.07-.17.06-.11M95.3,17.5c0,.59-.48,1.06-1.06,1.06s-1.06-.48-1.06-1.06.48-1.06,1.06-1.06,1.06.48,1.06,1.06M95.89,15.95c0,.53-.43.96-.96.96s-.96-.43-.96-.96.43-.96.96-.96.96.43.96.96M96.84,15.63c-.02-.19.12-.36.32-.38.19-.02.36.12.38.32,0,.09-.02.18-.07.25l-.04.05c-.11.14-.32.17-.46.06-.07-.06-.12-.14-.12-.23v-.05ZM93.64,11.69c-.28-.19-.35-.57-.16-.84.06-.08.13-.15.22-.2l-.02.02c.07-.05.14-.09.22-.11l.23-.04c.25-.08.5-.07.69-.06l.32-.02c.06,0,.11.02.16.03.33.11.42.29.44.32l.17.19-.08-.08.19.07.3.15c.18.07.37.25.46.33.05.04.09.09.13.15l.2.28.12.25.11.2-.46-.41.05.02c.22.07.4.24.49.46l.12.37.07.22h.02s.08.17.08.17l.08.15s.04.09.05.13l.06.2c.05.12.14.34.15.62l.03.44v.1c.01.09,0,.19-.03.27l-.1.27.05-.18v.07s-.02.05-.02.05l-.02.1-.04.14s-.04.09-.06.13l-.03.06c-.19.31-.59.41-.9.22-.18-.11-.29-.3-.31-.5v-.04s0-.1,0-.15v-.05s.02-.12.02-.12l.02-.08v-.02s0,.19,0,.19l-.03-.18c-.02-.09-.02-.19,0-.28l.02-.09.02-.3-.09-.16-.1-.21s-.03-.09-.04-.13l-.04-.17.04.11-.08-.09-.13-.15-.22-.44c-.11-.21-.12-.45-.03-.67v.02s.06.61.06.61l-.1-.15.02.04-.3-.3s-.08-.1-.12-.16c-.08-.15-.04-.1-.05-.11l-.08-.03c-.15-.1-.36-.2-.54-.45l-.1-.11h-.01s.06.03.06.03c-.03-.02.19.06.14.05-.05-.01-.11-.03-.16-.05l-.11-.02h-.23s-.15.04-.15.04c-.08.03-.16.04-.25.04-.12,0-.25-.02-.41-.13M93.51,10.78c.05-.11.14-.2.25-.24.38-.14.48.09.53.16.23.32.11.3.12.33.08.26-.07.53-.33.61-.26.08-.53-.07-.61-.33-.01-.04-.02-.08-.02-.13,0-.18-.02-.21.06-.39M93.9,11.34c-.17.06-.35-.02-.41-.19-.05-.14,0-.29.12-.37l.08-.07c.14-.12.36-.09.47.05.12.14.09.36-.05.47-.03.02-.06.04-.09.05l-.11.05ZM89.48,14.39c-.32.13-.69-.03-.82-.35-.13-.32.03-.69.35-.82.04-.01.08-.03.12-.03l.36-.04c.13,0-.05.01-.04.01l.08-.03.15-.05.5-.32.23-.17.24-.12.16-.16.25-.22s.1-.07.16-.1l.33-.09-.16.07.22-.18.14-.12c.08-.06.16-.1.26-.12l.33-.05-.21.07.14-.07c.09-.05-.02.02-.02.02l.06-.07.14-.14c.06-.06.13-.11.21-.15l.18-.07-.17.09.11-.07c.29-.16.65-.05.8.23.12.22.09.48-.07.67l.08-.18-.02.08c-.02.08-.05.16-.1.23l-.1.13c-.14.14-.26.29-.51.39l-.34.07.2-.07-.19.12c-.08.05-.17.09-.26.11l-.07.02-.37.13.16-.07-.19.11c-.05.04-.11.07-.17.09l-.25.1-.3.18-.08.04-.2.15c-.12.11-.3.33-.61.5l-.19.08c.06-.04,0,.05-.22.14l-.28.06h-.06s.08-.02.04,0M89.26,14.18c-.13.12-.33.11-.45-.01-.12-.13-.11-.33.01-.45l.19-.15c.15-.09.35-.04.43.12.09.15.04.35-.12.43l-.07.06ZM89.87,13.8c0,.35-.28.63-.63.63s-.63-.28-.63-.63.28-.63.63-.63.63.28.63.63M92.21,19.97c-.42.13-.86-.1-1-.51-.13-.42.1-.86.51-1,.06-.02.12-.03.18-.03.1,0-.22.05-.19.04.04-.02-.06.03-.06.03h.01c.06-.05.13-.09.21-.11l.16-.06-.19.11.28-.22.49-.31.33-.15.54-.27.29-.15.23-.17.22-.16.2-.13.03-.04.17-.14.27-.19.14-.12.23-.19.19-.19.26-.26s.06-.06.09-.08l.25-.18-.28.37.07-.19-.05.14h0c.07-.29.32-.53.63-.59l-.07.02c.39-.16.85.02,1.01.42.11.26.07.55-.11.77l-.11.13c-.22.22-.56.3-.85.18l-.06-.03.14.05s.13.02.07,0c-.07,0,.28-.04.22-.02l.37-.27-.15.23s-.05.07-.08.1l-.29.29-.34.25-.13.14-.34.25-.22.12-.08.08-.27.17-.16.09-.21.13-.41.2-.13.1-.7.39-.22.11-.37.24-.16.15.14-.18-.13.22c-.04.07-.09.13-.15.18-.08.07-.1.15-.42.26M88.11,14.82c-.08-.16-.1-.35-.05-.52l.08-.19c.07-.11.18-.2.3-.26l.4-.1-.61.41c.17-.34.41-.4.5-.44.21-.09.45-.09.67,0l.08.03.35.11.36.16-.26-.1c.38.08.54.26.54.26.05.03.09.07.13.11l.09.09c.09.09,0,0,.02.02l.13.1.4.35.35.47.1.08c.05.05.1.1.14.16l.19.36.08.31s-.07-.19-.07-.18l.04.06-.09-.12.12.13.25.47c.16.46.24.9.26,1.36l.06.6.03.28v.06s-.06-.17-.03-.11c.02.03-.12-.18-.08-.13.04.05-.27-.23-.18-.17.39.26.5.79.23,1.19-.26.39-.79.5-1.19.23-.14-.09-.24-.22-.31-.37-.25-.57-.06-.61-.05-.7v-.24s-.08-.47-.08-.47l-.28-.78-.06-.11s.06.08.03.05l-.13-.17.1.11-.26-.32-.03-.04-.07-.09c-.05-.05-.09-.11-.13-.17l-.18-.29-.15-.22-.12-.11-.26-.18-.24-.26s-.07-.09-.1-.14l-.04-.07.03.04s.14.13.1.09l.25.13h-.08s-.52-.14-.52-.14l-.26-.13c-.2-.11-.35-.3-.42-.52l-.04-.14.51.53-.19-.05c-.13-.04-.24-.13-.32-.23l-.07-.1ZM89.05,14.57c-.02.16-.15.28-.31.28-.02,0,.18-.06.11-.03-.17.07-.36,0-.43-.17-.07-.17,0-.36.17-.43.17-.07.36,0,.43.17.04.11.03.23-.03.32-.06.08.06-.18.06-.15M92.8,19.21c0,.47-.38.86-.85.86s-.85-.38-.85-.86.38-.85.85-.85.85.38.85.85M46.79,52.11c.31.22.39.66.17.97-.22.31-.66.39-.97.17-.31-.22-.39-.66-.17-.97.17-.24.46-.34.74-.27.06.01-.15-.02-.12-.02.17.01.33.09.44.21.02.02-.15-.12-.1-.08M46.08,51.38c.07-.37.36-.67.74-.73.46-.08.89.29,1,.51.27.54.1.66.09.73,0,.05-.02.1-.03.14l-.16.53c-.02.05-.04.1-.06.15l-.1.22c-.03.06-.06.11-.1.17l-.31.37-.19.15.17-.14-.3.22c-.5.26-1.12.06-1.38-.45-.18-.36-.14-.8.12-1.11.04-.05-.05.06-.04.06l-.1.2.03-.07.08-.23c.02-.06.05-.12.08-.18l.14-.27s.06-.09.09-.13l.31-.41s.06-.07.1-.1h.01s-.02,0-.02,0c0-.01-.07.1-.04.07.01-.02-.07.14-.05.09.02-.05-.09.31-.07.21M45.92,53.9c-.15.52-.69.82-1.21.67-.52-.15-.82-.69-.67-1.21.07-.26.26-.48.5-.61.05-.03-.1.06-.09.05l.28-.28c.33-.39.8-.89,1.22-1.26l.31-.31c.19-.13.3-.25.67-.26.45,0,.83.36.83.81,0,.45-.36.83-.81.83-.06,0-.11,0-.17-.01-.1-.02.27,0,.22,0-.07,0,.15-.04.13-.03h.02s-.2.13-.2.13l-.89,1.18-.12.24-.04.08s.03-.1.01-.05M46.35,49.55c.07-.24.24-.44.47-.54.44-.2.71-.03.85.07.44.3.35.46.37.56.05.24.03.37,0,.55-.09.43-.26.59-.35.75l-.26.51-.26.48-.41.78-.38.67-.34.63c-.03.05-.06.1-.09.15l-.22.27.15-.18-.02.03c-.34.49-1.02.61-1.51.27-.25-.18-.42-.45-.46-.76-.06-.52.05-.5.07-.55l-.06.22c.05-.29.09-.31.13-.4.02-.05.05-.1.08-.15l.42-.65.4-.61.51-.76.27-.41.38-.56.21-.26.04-.05c.03-.06-.06.17,0-.04M44.42,53.16c-.42-.23-.58-.75-.35-1.17.23-.42.75-.58,1.17-.35.13.07.24.17.32.29.06.09-.33-.31-.24-.24.09.06-.36-.14-.28-.12.08.02-.28-.02-.22-.02.11,0-.3.06-.25.04.1-.03-.19.1-.16.08.04-.03-.04.03-.03.02l.24-.26.53-.61.5-.59.49-.6.29-.32c.09-.09-.02-.27.62-.36.47-.07.91.25.98.72.07.47-.25.91-.72.98-.05,0-.1.01-.15,0-.1,0,.3-.05.24-.03-.1.03.22-.1.18-.08-.05.03.06-.04.05-.04l-.24.25-.53.56-.47.56-.49.61-.28.35-.16.17-.18.14c-.12.07-.44.25-.86.02M44.22,48.56c.14-.44.61-.69,1.06-.55.31.1.54.37.58.69v.52c-.09.43-.23.67-.37.92l-.38.64-.57.81-.75.89c-.3.32-.54.57-.88.76-.22.11-.47.17-.74.1-.27-.07-.55-.31-.63-.61-.19-.43.03-.61.11-.77.21-.37.43-.52.63-.69l.78-.76.41-.42.74-.85.5-.68.02-.04-.02.06s.01.34,0,.23c0-.06.09.26.06.19-.03-.07.19.26.13.2-.09-.1-.15-.21-.19-.34-.03-.11.21.36.14.29-.05-.06.2.17.16.14-.08-.05.23.1.19.09-.06-.02.12.02.1.02l-.29-.03c-.17-.05-.45-.21-.55-.52-.04-.13.1.2.07.15-.06-.1.2.22.16.19-.07-.06.14.09.12.08l-.15-.06c-.17-.09.2.05.13.04-.06-.01.2,0,.16,0-.07,0,.13-.03.12-.03l-.25.16-.38.28-.93.72-.45.46-.23.32v-.04s.05-.15.04-.1c0,.04,0-.22,0-.15,0,.06-.06-.26-.04-.19.02.06-.14-.26-.1-.2.08.12-.44-.33-.32-.27.09.04-.32-.08-.25-.07.11.01-.3.03-.24.01.05-.01-.14.05-.12.04.04-.02.09-.04.13-.05.06-.02-.09.04-.09.03l.29-.22.7-.64,1.16-1.08c.42-.38.85-.7,1.21-.93l.54-.28c.18-.07.38-.28.91.02l-.16-.07c.24.07.44.29.51.46.22.5.04.6,0,.71l-.13.27-.3.45-.75,1.13-.6,1-.44.7-.67.97-.13.2s.03-.06.01-.02c-.01.02.08-.23.06-.15-.01.05.04-.28.03-.2,0,.09-.08-.46-.04-.34.02.08.04.16.04.24,0,.1-.11-.4-.07-.3.04.09-.21-.31-.15-.24.06.06-.23-.19-.17-.15.1.07-.35-.14-.28-.12.07.02-.21-.02-.17-.02.08,0-.2.02-.17.01.05-.01-.11.03-.09.03l.43-.5.69-.76,1.02-1.02.54-.5.33-.29s.09-.06.13-.09c.1-.05.19-.12.46-.13.16,0,.5.02.73.41.24.4.07.73,0,.85l.1-.26c-.08.42-.23.44-.28.5l-.09.09-.27.42-.24.58-.17.38-.4.78-.19.4h0c-.03.2-.11.38-.25.53-.04.04.1.06-.34.26-.08.04-.17.06-.27.08-.46.06-.55-.09-.67-.17l-.25-.25c-.12-.16-.18-.35-.19-.54l.07-.55.22-.6.45-.86.25-.38.65-.74.5-.51.08-.08-.02.02s-.08.11-.06.08c.03-.04-.12.29-.09.2l-.03.27c0-.06.06.28.03.2-.02-.07.17.31.11.23-.05-.08.29.26.21.2-.08-.05.31.13.24.11-.07-.02.25.03.19.03-.1,0,.27-.03.22-.02-.08.02.19-.07.15-.05-.04.02.08-.05.07-.04h0s-.09.05-.14.08l-.21.15-.52.4-.92.92-.63.73c-.21.27-.37.53-.64.79l-.13.14c-.07.06.03.24-.62.3-.08,0-.16,0-.24-.01-.26-.05-.52-.25-.64-.44-.35-.57-.12-.75-.08-.88l.12-.31.55-1.08.46-.74.81-1.06,1.01-1.11.27-.26-.02.02s-.06.2-.04.11v.09c0-.06.04.39,0,.27-.02-.06.13.29.09.21-.05-.08.26.27.19.21l.15.09c-.06-.03.23.07.17.06-.09-.02.24.01.2.01-.07,0,.1-.02.1-.02l-.28.15-1.05.77-1.03,1.04-.73.76c-.23.21-.37.41-.79.57-.04.02-.09.03-.14.04-.15.03-.34.05-.57-.03-.37-.14-.65-.69-.61-1,.04-.28.15-.43.25-.56l.51-.52.63-.51.96-.75.41-.31.38-.29c.17-.11.47-.3.92-.14l.24.11.19.12c.1.08.28.23.31.58,0,.13-.06-.24-.03-.17.04.12-.26-.38-.18-.3.05.05-.21-.15-.16-.12.07.04-.24-.09-.19-.08.05.01-.18-.02-.14-.02h.23c.15.03.51.09.68.55.04.12.06.26.04.39-.06.4-.21.44-.27.5l-.14.14-.64.69-.82.85-.4.43-.71.81-.19.24-.03.03c-.02.06,0-.03-.01.02,0,.03-.02-.2,0-.14.01.07-.2-.38-.12-.28.02.01-.46-.28-.36-.26.07.02-.27-.02-.21-.02.09,0-.26.07-.21.05.05-.02-.12.08-.1.06l.51-.55.65-.8.47-.71.33-.55.16-.32.11-.39ZM43.48,55.53c-.04.47-.45.82-.92.79-.47-.04-.82-.45-.79-.92,0-.07.02-.14.04-.2l.16-.31.2-.23.46-.68c.37-.44.73-.85,1.03-1.33l.58-1.11.2-.56.12-.56v-.1s-.07-.08-.07-.08c-.16-.32-.12-.55-.13-.69l-.02-.37-.02-.23c-.09-.39.15-.78.54-.87.39-.09.78.15.87.54.02.11.02.22,0,.32l-.02.24-.02.37-.03.25s-.02-.06,0,0l.06.16c.04.09.09.33.07.59l-.08.73-.12.69c-.12.49-.29.98-.51,1.44-.35.67-.73,1.19-.99,1.57l-.68.82-.03.04s.05-.08.03-.04l.04-.08s.05-.3.04-.2M41.6,51.78c-.07.32-.39.52-.71.44-.05-.01-.1-.03-.15-.06-.25-.14-.38-.51-.37-.72l.1-.36c.05-.1.08-.24.32-.43l-.17.18s.03-.18.4-.39c.12-.07.25-.1.38-.11.56-.04.79.28.88.39l.09.12s.06.08.08.12l.14.21.47.51c.22.26.42.55.58.9l-.08-.14.35.67s.03.08.04.11l.15.89v.87s-.02.08-.03.12c-.09.39-.29.7-.55.92l.13-.14-.32.31.15-.14c-.14.16-.22.25-.52.36-.51.19-1.09-.07-1.28-.58-.19-.51.07-1.09.58-1.28.28-.11.6-.08.86.08.09.06-.31-.12-.24-.1.11.03-.31-.03-.25-.03.08,0-.22.04-.18.02l-.09.03-.17.11s-.11.12-.08.09l-.09.17h0s0-.07,0-.11l-.04-.49-.06-.63s-.01-.08-.02-.12l-.06-.29.07.15-.32-.42c-.15-.17-.39-.34-.64-.7l-.25-.41s-.04-.09-.06-.13l-.04-.13s.08.17.05.1c-.02-.04.15.2.1.14-.05-.06.35.26.24.19-.12-.07-.22-.16-.3-.27-.04-.06.19.18.14.15-.07-.05.15.1.14.09l-.05-.02.23.07c-.09-.01.24,0,.2,0h-.01c-.17.03,0,0-.03,0-.02,0,.14-.1.09-.06-.03.02.12-.14.09-.1-.03.05.1-.27.09-.19M42.11,52.43c.17.06.25.24.19.41-.02.05-.05.09-.09.13-.1.09-.23.14-.36.15-.05,0-.1,0-.16,0l-.36-.17-.17-.15c-.07-.09-.11-.2-.1-.31l.03-.18v.17s-.04-.2-.04-.2l-.04-.03-.07-.06-.12-.05c-.24-.13-.32-.43-.19-.67.13-.24.43-.32.67-.19.13.07.22.2.24.34l.04.12.07.13.07.25.06.12-.1-.14h.02c.1.07.18.15.22.26l-.02-.03h.03s.1.04.14.08l.04.03ZM41.99,52.35c.16-.07.35,0,.42.16,0,0,0,.02.01.03.03.09.03.23-.03.34-.09.19-.32.27-.51.18-.19-.09-.27-.32-.18-.51.08-.16.26-.25.43-.2.03,0-.22.05-.15.02M43.64,55.5c0,.55-.44.99-.99.99s-.99-.44-.99-.99.44-.99.99-.99.99.44.99.99M42.44,52.71c0,.21-.17.38-.38.38s-.38-.17-.38-.38.17-.38.38-.38.38.17.38.38M48.32,52.63c-.36,0-.64-.29-.64-.64,0-.36.29-.64.64-.64.36,0,.64.29.64.64,0,.21-.1.41-.28.53-.07.05.11-.1.1-.08l.02-.02c-.22.27-.62.3-.89.08-.04-.04-.08-.08-.11-.13-.03-.05.22.2.15.15-.04-.03.2.1.14.08-.06-.02.33.04.23.04M40.88,57.78c-.09-.08-.15-.18-.19-.29-.15-.42-.03-.39-.02-.46l.05-.17s.03-.09.06-.13c.13-.23.26-.33.28-.34.11-.12.26-.2.42-.24l.07-.02.3-.17-.1.07.88-.72.61-.36-.1.07.42-.31.27-.27s.08-.07.12-.1l.32-.21.34-.26.18-.13.18-.13.3-.2.13-.1.31-.22.18-.12-.11.1.07-.09.07-.11.32-.37.42-.38c.07-.06.15-.12.23-.16l.13-.07.17-.12-.24.27.23-.36c.04-.07.09-.14.15-.2l-.04.05c.1-.15.24-.26.39-.34l.22-.09-.26.16.27-.18c.49-.23,1.06-.02,1.29.47.22.47.03,1.03-.42,1.27-.05.03.14-.09.11-.07l.05-.04.19-.24-.02.03s.08-.26.06-.17c-.04.17-.12.33-.23.47l-.15.16c-.06.05-.13.1-.2.14l-.34.2.27-.25-.15.22-.24.28c-.06.07-.14.13-.22.18l-.43.27-.18.11-.23.16-.25.15.13-.08-.22.15-.31.21-.22.13-.24.17-.2.12-.17.11-.42.25-.25.19s-.09.06-.13.08l-.52.23-.29.18.1-.07-.39.36-1.05.73.1-.08-.34.32.05-.04c-.08.14-.2.26-.35.33l-.12.06s.14-.1.09-.06c-.03.03-.07.06-.11.08l-.29.13c-.13.04-.28.25-.73-.16M42.14,56.43c.16.17.16.43,0,.6-.08.08-.2.13-.31.12-.06,0,.2-.08.17-.05l.05-.05c-.04.07-.1.12-.16.16l-.05.06-.11.14c-.06.08-.15.14-.24.17l-.16.02.43-.45v-.07c.06.23-.07.48-.3.55-.23.07-.48-.06-.55-.29-.04-.12-.02-.25.05-.36l.03-.04.15.61-.17-.16c-.06-.08-.08-.18-.08-.29l.03-.19c.09-.24.18-.41.36-.55.06-.05.13-.09.2-.1.21-.05.51,0,.68.17M37.76,51.57c.34-.13.73.04.86.39.13.34-.04.73-.39.86-.13.05-.27.06-.4.02-.11-.03.32,0,.26.01-.06.01.16-.05.13-.04.02,0,.13-.08.11-.06l-.1.11-.13.19-.1.2-.19.41-.15.35.04-.17-.02.23-.07.91v.02s0-.02,0-.02c.03.04.06.08.08.12.03.06-.05-.07-.04-.07l.09.1s.06.08.08.12l.12.28.08.22.07.18-.09-.12.12.09c.06.03.12.06.18.1l.08.04.21.11.28.19.24.13.29.19-.12-.05h.05s.21-.02.21-.02l.28-.07.06-.03.09-.05.12-.09.03-.03.28-.26.04-.05-.06.12.08-.2.15-.28.06-.29v.16s-.03-.19-.03-.19l-.02-.11c-.02-.07.11.22.08.19h0c-.07-.09-.13-.19-.17-.3l-.07-.18-.09-.31v.03s.17.25.17.25l-.04-.05c-.12-.12-.21-.25-.28-.4l-.11-.25-.16-.35.28.38h-.01c-.1-.09-.19-.19-.27-.3l-.02-.03c-.09-.1-.16-.22-.21-.35h0s.3.29.3.29c0,0,.1.04.05.02-.06-.02-.11-.05-.16-.08l.04.02.52.09h-.01c-.18.01-.36-.01-.53-.08h-.03s.05,0,.05,0c-.07-.01-.15-.03-.22-.05l-.08-.02.14.03h-.05s-.2-.05-.2-.05h.03s-.11,0-.11,0h-.08s-.02-.02-.02-.02c-.06,0-.12-.02-.18-.04l-.07-.02-.11-.04.22.06h-.08c-.34-.07-.65-.28-.83-.57l-.15-.3.53.63-.1-.06c-.53-.34-.69-1.05-.35-1.59.19-.29.49-.48.83-.52h.04s-.73.38-.73.38l.17-.16c.27-.23.61-.33.96-.29h.04s-.22,0-.22,0h.06s.1,0,.1,0c.06,0,.13,0,.19,0h.06s.02,0,.02,0h.09s.12.02.12.02h.07s.18.03.18.03l-.14-.02h.18c.07.02.15.03.22.05l.2.06.1.02c.17.05.33.14.47.25l.1.09-.45-.28.24.11c.05.03.11.06.15.09l.37.33-.32-.26.55.43c.09.1.17.21.23.33l.12.28c.05.12.07.25.08.38v.16s-.09-.45-.09-.45l.18.44.11.27c.06.15.09.32.08.48v.17s-.03-.3-.03-.3l.05.26.02.06.06.18c.03.11.05.23.05.35l-.05.44-.07.24-.16.44.05-.15-.34.79-.05.11-.2.36.06-.12-.21.36-.33.4-.3.23-.13.09-.26.15-.33.13-.54.15h-.55c-.22,0-.44-.05-.67-.16l.12.05-.44-.2-.43-.24h-.02s-.2-.07-.2-.07l-.33-.14c-.06-.03-.12-.07-.17-.12-.29-.25-.47-.57-.57-.85l.06.14-.2-.47-.05-.13.05.08s-.06-.07-.09-.11l-.17-.29s-.03-.09-.04-.13l-.04-.4.02-.32c-.02-.28,0-.69.11-1.1l.15-.37-.05.16.11-.45.29-.62.32-.38.25-.26.03-.03.22-.23.2-.12ZM38.66,52.2c0,.37-.3.67-.67.67s-.67-.3-.67-.67.3-.67.67-.67.67.3.67.67M45.46,46.16c.37-.09.75.14.83.52.09.37-.14.75-.52.83-.03,0-.05.01-.08.01-.11.01.2-.08.17-.06l-.05.07-.15.18s-.07.07-.11.1l-.19.13-.24.14-.33.25-.21.16-.23.17-.38.31-.25.24-.14.13-.32.23-.27.16-.49.34-.41.33-.23.18-.11.1-.17.2-.17.16c-.12.11-.27.17-.43.2l-.21.03.17-.04-.41.12.12-.04-.41.21-.25.24-.58.4-.04.06-.21.18-.22.16c-.05.04-.11.07-.16.09l-.4.14c-.36.1-.72-.11-.82-.46-.05-.16-.03-.34.05-.49.17-.33.3-.35.41-.44.05-.04.1-.08.16-.1l.17-.09.17-.09.18-.11.35-.27.63-.34.4-.23-.11.07.22-.18-.11.14.05-.1c.07-.14.18-.27.31-.35l.13-.08.42-.18.12-.07.17-.12.42-.3.64-.4.19-.12.18-.12.09-.09.25-.25.54-.42.26-.14.12-.12.37-.32.1-.11.1-.11s.07-.08.11-.11l.1-.08.34-.27.36-.17ZM45.6,47.35c-.16.06-.35-.02-.41-.18-.04-.11-.02-.23.05-.32l.04-.06c.06-.11.18-.18.31-.18.14,0,.19.05.25.1.08.08.12.19.1.3-.01.06,0-.14,0-.07,0,.13-.06.25-.17.31l-.17.09ZM46.32,46.84c0,.38-.31.69-.69.69s-.69-.31-.69-.69.31-.69.69-.69.69.31.69.69M44.94,47.45s-.06-.1-.08-.15c-.18-.52.05-.6.14-.71.1-.13.25-.22.41-.26l.36-.05c.33,0,.53.07.66.12.36.11.65.43.81.63l.81,1.11.34.45c.37.52.55,1.06.58,1.62,0,.06,0,.11,0,.17l-.07.41-.02.24v.09s-.06.39-.06.39l-.21.54.04-.12-.08.3-.03.11-.1.23-.1.17c-.24.34-.71.42-1.05.18-.3-.21-.4-.61-.24-.94v-.03s.05-.09.05-.09l.07-.16.05-.16-.03.12.03-.38.02-.17v-.22s-.03-.19-.03-.19l-.05-.14c-.02-.05-.03-.11-.04-.16-.03-.22-.13-.42-.23-.54l-.48-.74-.58-1.15c-.12-.21-.03-.13-.05-.14h-.01s-.17-.03-.17-.03c-.17,0-.33-.06-.46-.16-.03-.02-.02.05-.19-.19M45.01,47.55s-.08-.09-.11-.15c-.11-.2-.08-.26-.08-.34.02-.36.32-.64.68-.62.36.02.64.32.62.68-.02.36-.32.64-.68.62-.09,0-.18-.03-.26-.07l-.17-.12ZM45.48,46.83c.18,0,.32.14.32.32,0,.1-.05.2-.13.26l-.03.02s.09-.1.04-.04c-.13.14-.35.15-.49.02-.14-.13-.15-.35-.02-.49.13-.14.35-.15.49-.02.08.08.12.19.11.3-.01.08-.04-.21-.02-.17.03.07-.13-.16-.1-.14.05.04-.14-.06-.11-.06h-.05Z"/>
  </g>
  <polygon class="cls-2" points="155.96 53.91 148.96 58.77 143.1 57.3 152.84 49.41 155.96 53.91"/>
  <path d="M123.94,57.75c-.11.14-.3.17-.44.06-.04-.03-.07-.06-.09-.1-.1-.18-.11-.47.04-.71.03-.05.06-.09.1-.12.21-.18.49-.27.78-.28.05,0,.09,0,.14,0,.3.06.47.18.57.22.62.22,1.43.14,2.39.13l.92-.05,1.45.19,1.11.06.58.09h.22s.26-.01.26-.01l.46-.05c.81,0,1.27.19,1.67.28l1.15.1.75.1.25.03h.45c1.75-.03,3.29-.07,4.91-.23l.98-.09.5-.07,1.17-.04.21-.04.45-.06.52-.02.82.02.34-.03.27-.03.19-.03.27-.02s.09,0,.14,0l.31.02s.08,0,.13.02l.59.11.24.02.37.06c.14.02.26.09.36.19l.14.14c.14.14.17.37.05.54l-.12.17c-.08.11-.19.2-.33.25l-.3.1-.38.09-.54.16s-.08.02-.12.03l-.32.05s-.09,0-.14,0h-.22s-.28-.02-.28-.02l-.31-.02h-.39s-.67.04-.67.04h-.5s-.51-.04-.51-.04l-.34-.04-.96.05h-.6s-.9.04-.9.04c-1.67.14-3.26.17-5.02.18h-.58s-.31-.04-.31-.04l-.67-.05c-.42-.03-.91-.03-1.38-.13-.54-.11-.81-.23-1.29-.23l-.59-.06h-.25s-.32-.03-.32-.03l-.54-.03-1.27-.26-1.18-.1-.96-.1c-.86,0-1.81.1-2.77-.25l-.29-.09s-.09,0-.13-.02h-.16c-.05,0-.11,0-.16,0l.07-.04Z"/>
  <path d="M155.02,53.42c.29-.25.72-.21.97.07.25.29.21.72-.07.97-.03.03-.07.05-.1.07-.04.03.04-.03,0,0-.05.04-.15.16-.42.2.03,0,.23-.09.22-.08l-.23.23-.51.35-.41.27-.28.24-.74.42-.14.1-.4.31-.73.45.12-.13-.12.19c-.03.05-.07.1-.12.15l-.72.63.09-.08-.17.19-.39.31-.19.16-.17.14-.21.15c-.26.2-.64.16-.85-.11-.17-.22-.17-.54.02-.76l.16-.19.22-.2.28-.2.34-.23.27-.14-.1.07.65-.62s.1-.08.16-.1l.29-.11-.15.08.73-.51.54-.26.11-.08.39-.48.44-.35.31-.28.36-.36c.08-.07.16-.33.65-.46,0,0-.28.17-.26.15l.16-.17Z"/>
  <path d="M152.5,49.78c.03.1.03.2,0,.3-.08.35-.15.27-.17.29l-.04.03c-.06.05-.12.09-.19.12l-.1.07-.2.14-.48.43-.38.33-.12.1-.44.41-.24.22-.26.22-.29.3-.51.42-.67.53-.36.28-.21.14-.38.24-.32.22-.63.62-.92.68-.54.36-.13.1-.2.17-.34.32-.14.15-.21.23-.4.3c-.06.04-.13.07-.2.08l-.27.05c-.36.05-.7-.21-.75-.58-.03-.2.04-.4.18-.54l.04-.05c.04-.06.09-.12.14-.17l.11-.11.24-.24.27-.24.48-.32.23-.16.18-.14.54-.35.72-.59.92-.63.31-.21.27-.23.18-.15.34-.28.61-.55.33-.36.49-.42.25-.18.2-.17.49-.43.18-.13.39-.26.61-.43.25-.16.28-.17c.07-.03.15-.05.22-.05l.26.04c.1.04.25-.02.38.39"/>
  <g>
    <rect class="cls-2" x="107.97" y="75.4" width="19.67" height="5.48" transform="translate(-23.53 81.11) rotate(-34.76)"/>
    <path d="M110.61,87.47c-.22-.2-.27-.53-.1-.78l.13-.16c.15-.16.37-.23.58-.21.06,0-.11,0-.11,0l.44-.3.33-.32.41-.3.49-.38.93-.81.45-.36.31-.27.83-.69,1-.65,1.14-.99,1.13-.77,2.08-1.66.56-.33.46-.32-.11.09.61-.65.73-.7.65-.52.46-.26.34-.16.12-.07.22-.16-.18.16.54-.59.23-.25c.13-.16.31-.28.5-.35.17-.06.11-.03.12-.04l.42-.22-.15.08.26-.16-.12.08.1-.08.06-.05c.07-.05.14-.08.22-.11l.24-.06c.14-.02.27-.01.41.02.17.05.44.12.64.53.17.36.11.79-.17,1.08l-.04.04c-.1.1-.21.17-.34.22-.04.02.09-.04.08-.03-.07.04-.15.07-.23.09l.06-.02h.03s.12-.09.12-.09l-.09.08.11-.12-.28.36-.3.32c-.15.14-.34.24-.55.28l-.25.07-.6.26.2-.13-.19.18-.11.14-.26.29-.26.24-.63.52-.78.57-.88.55.11-.08-.52.42-.42.35-2.18,1.55-1.06.82-1.45.92-.87.55-.94.59-.28.2-.36.33-1.14.76-.43.38-.31.27-.49.36c-.18.18-.37.6-1.05.68-.22.02-.43-.05-.58-.21l-.02-.03Z"/>
    <path d="M123.78,71.15c-.2-.23-.23-.55-.07-.81.12-.2.35-.34.56-.39.16-.03.32-.01.47.05.35.16.43.33.47.38.03.03.06.07.08.1l.1.15-.15-.14.42.15s.07.04.11.06c.49.31.65.69.73.79.14.15.53.31.96.83l.35.56c.17.34.47.8.52,1.46-.02.84-.41,1.29-.64,1.58-.04.06-.09.1-.15.15l-.25.18c-.3.22-.73.15-.94-.16-.07-.1-.11-.22-.12-.34l.02-.44c0-.07.03-.14.05-.2l.15-.49-.34-.79-.19-.39c-.1-.17-.43-.4-.79-.9l-.29-.39s-.07-.05-.1-.07c-.04-.03-.32-.14-.59-.51l.14.15-.21-.18s-.06-.06-.09-.1l-.09-.12h.01s.14.11.09.08c-.14-.08-.25-.21-.32-.35v.03s.11.12.07.08"/>
    <path d="M123.46,70.58c.29-.24.73-.2.97.09.24.29.2.73-.09.97-.04.03-.09.06-.14.09l-.25.09c-.07.02.08-.03.08-.03l-.34.21-.34.18-.48.3-.53.36-.9.45-.23.18-.43.32-.51.4c-.39.35-.87.68-1.28.95l-.55.38-.42.36-.41.33-.73.67s-.1.08-.16.11l-.36.16.13-.07-.39.29-.31.26-.23.18-.97.85-.49.4-.37.25-.52.38-.64.47-.63.47s-.09.06-.14.08l-.34.17-.45.32-.97.64-.39.22-.26.14-.19.11c-.05.03-.11.06-.17.08l-.32.11-.37.09c-.36.08-.71-.14-.8-.49-.03-.11-.02-.23,0-.34l.17-.4.31-.41s.08-.09.13-.13l.22-.17.19-.15.34-.25.99-.62.55-.39.4-.27s.1-.05.15-.08l.5-.25.59-.45.67-.43.22-.15.45-.33,1.14-.85.16-.11.41-.28.46-.3-.12.09.21-.2s.09-.09.15-.13l.76-.58.36-.29.55-.4.64-.41,1.19-.78.55-.43.5-.33.41-.22.75-.47.69-.31.47-.27.3-.17c.14-.08.17-.17.48-.3l.1-.04-.04.02s-.12.09-.09.06"/>
    <path class="cls-1" d="M155.61,53.96c-.11-.22-.03-.49.19-.6s.49-.03.6.19c.1.19.05.43-.13.57l-.11.09c-.14.11-.34.08-.45-.06,0,0-.01-.02-.02-.03l-.09-.16ZM155.38,53.24c-.27-.41-.16-.96.24-1.23.41-.27.96-.16,1.23.24.09.14.14.3.15.47l-.06.48-.18.4.08-.27v.12c-.02.05-.03.11-.05.16l-.08.2c-.14.37-.56.55-.93.41-.3-.12-.49-.42-.46-.74l.02-.18c0-.05.01-.11.03-.16l.02-.08-.02.29-.02-.1c-.02-.09.05.04.02,0M155.48,52.35c0-.21.16-.39.37-.39.1,0,.19.03.26.09h-.09c.3,0,.53.24.52.53,0,.3-.25.53-.54.52-.29,0-.53-.25-.52-.54,0-.03,0-.06.01-.1v-.12ZM157,52.75c0,.49-.4.89-.89.89s-.89-.4-.89-.89.4-.89.89-.89.89.4.89.89M155.83,53.03c.43.22.61.74.39,1.18-.22.43-.74.61-1.18.39-.43-.22-.61-.74-.39-1.18.05-.11.13-.2.22-.28.05-.04-.08.08-.07.07.12-.13-.07.13-.04.06,0-.02-.03.08-.02.04.02-.16,0-.47-.07-.7l-.11-.21-.23-.31-.41-.59-.38-.91.04.03c-.09-.06.24.06.19.06-.05,0,.11,0,.09,0-.05,0-.1.01-.15.02l.09-.02c-.06.02.2-.11.13-.07-.39.25-.91.15-1.16-.24-.18-.27-.18-.63-.01-.9l.25-.27.24-.14.15-.06s.09-.03.14-.04c.23-.04.57-.05.92.17.23.15.43.36.57.62.24.45.3.84.39,1.04l.18.32s.21.2.37.48l.22.58c.21.57.27,1.11.15,1.65l-.08.26s.04-.21.03-.13c0,.05-.01-.34,0-.22,0,.06-.12-.36-.07-.25.03.06-.18-.27-.12-.19.06.08-.43-.3-.29-.23M152.84,50.64c-.29.11-.61-.03-.73-.32-.15-.36.01-.62.04-.7.08-.21.25-.37.46-.44.45-.16.68.04.8.12l.2.15-.12-.07.91.46c.28.22.52.42.71.73l.58,1.03c.1.14.24.35.35.63.01.04.03.08.03.12l.11.72v.39s-.02-.16-.02-.16l.03.14s-.05-.1-.02-.06c.01.03-.12-.17-.08-.12.02.03-.13-.13-.09-.1.04.04-.26-.16-.18-.12.43.22.61.74.39,1.18-.22.43-.74.61-1.18.39-.2-.1-.35-.27-.43-.47-.18-.48-.08-.53-.07-.75v.16s-.02-.27-.02-.27l-.13-.42s-.03-.08-.04-.12l-.14-.33-.56-.88-.29-.3-.67-.61.12.08-.13-.08s.19.05.12.04c-.04,0,.24,0,.17,0-.08,0,.34-.12.26-.08-.2.1-.43.11-.63.03-.06-.02.14.03.12.03-.06,0,.21-.04.13-.02M152.17,50.27c-.05-.15.02-.32.16-.39l-.06.04s-.12.21-.09.13c.07-.18.28-.27.46-.2.18.07.27.28.2.46-.07.18-.28.27-.46.2-.14-.05-.23-.19-.23-.34,0-.06.01.09,0,.07v.02ZM156.31,53.81c0,.48-.39.88-.88.88s-.88-.39-.88-.88.39-.88.88-.88.88.39.88.88M152.03,50.46c-.07-.06-.13-.13-.17-.22-.29-.54-.09-.61-.04-.75.06-.17.17-.32.32-.43.36-.26.62-.27.84-.31l.57-.04c.61-.01,1.06.31,1.31.47l.5.35.57.45.53.59.27.44.19.53-.05-.14.08.19s.03.1.05.15l.07.39v.5s-.03-.26-.03-.26l.06.2c.08.29,0,.59-.21.81l-.15.17c-.19.23-.53.26-.76.07l-.14-.11c-.25-.16-.4-.44-.4-.73v-.18s.04.26.04.26l-.1-.27-.11-.35s-.03-.1-.04-.15l-.02-.11.05.14-.11-.23-.15-.26-.3-.31-.33-.18-.5-.32-.35-.22-.18.03-.35.02h-.03c-.17.06-.36.06-.53.01-.03,0,0,.14-.38-.2M152.7,49.48c.08-.16.27-.22.42-.15.15.07.22.26.15.42-.08.17-.2.29-.33.37l-.19.08c-.17.04-.34-.06-.39-.23-.04-.16.05-.33.21-.38h.02s.11-.11.11-.11ZM108.82,83.58c.13.18.15.41.04.6-.05.1.06-.32.06-.27,0,.07,0-.07,0-.05l.02.12c.02.14,0,.29-.05.42l-.21.55-.33,1.01-.11.76v.08s-.02-.05-.02-.05c.01.02-.15-.19-.09-.13.06.06-.3-.18-.22-.15.17.08-.19-.04-.14-.03.06,0-.06,0-.04,0h.16s.35-.07.35-.07c.05-.02.1-.04.16-.06l.21-.08c.25-.13.28-.16.4-.42l.14-.68v-.5s.02.07-.02,0l-.26-.36-.19-.23h.01s.25.14.17.11c-.09-.03.31.02.24.03-.07,0,.23-.08.18-.06h.02c-.1.08-.45.68-.64,1.31-.15.45-.21.95-.17,1.22l.03.16s-.04-.08-.02-.04c.04.07-.25-.23-.19-.19.04.02-.11-.04-.09-.04l.09-.02c.14-.03.41-.24.55-.56l.23-.72.02-.52s-.16-.24-.32-.34c.02.02.11,0,.07.02,0,0,.11-.07.09-.05-.07.09-.19.45-.22.8v.67s.03.2.03.2c0,.02-.05-.08-.02-.04.03.04.05.08.07.12.04.07-.16-.19-.12-.16.05.05-.08-.05-.07-.05l.1.02h.08-.04s-.03.03-.03.03l.17-.28.05-.16v.16s0-.05,0-.05l.02.04s.13.13.08.1c-.02,0,.48.21.39.19-.06,0,.18,0,.14,0-.05,0,.12-.02.1-.02h.03c-.06.01.17-.12.14-.09-.04.03.06-.06.06-.05l-.04.06-.16.32-.03.09s0-.12,0-.06c0,.08,0,.15-.02.22,0,.02,0-.2,0-.13,0,.04-.03-.2-.02-.14.01.06-.1-.28-.06-.2.05.12.09.25.1.38,0,.09-.11-.39-.07-.29.06.15-.36-.46-.26-.37.1.09-.35-.21-.27-.18.01,0-.23-.06-.2-.06h-.04s.06-.01.06-.01c.08-.01.16-.02.24-.02.06,0-.12.01-.11,0l.05-.02c.06-.02.12-.03.18-.04l.29-.04-.3.19s-.06.1-.05.08v.02s.05.3.05.3c-.02-.06.15.22.1.17-.07-.08.32.21.24.18-.08-.03.26.05.21.05l.57-.18.02-.02.05-.05.06-.07c-.04.07-.09.13-.15.18l.02-.02c-.12.14-.26.24-.43.31l.07-.04c-.1.07.08-.09.03-.04l.08-.1s.08-.15.06-.11c-.11.25-.3.46-.55.58-.07.03.28-.23.21-.16-.07.08.2-.37.17-.27-.18.53-.76.81-1.29.63-.21-.07-.38-.2-.51-.38-.17-.24-.28-.59-.26-.92.01-.28.12-.54.31-.74l.23-.2-.1.08.45-.3.55-.15c.18-.02.36,0,.53.07l.23.11c.07.04.13.09.18.14l.19.24.11.23.06.33-.21-.56c.23.26.28.69.19.96l.04-.3c.02.3-.02.66-.31.99l.16-.32c-.08.33-.24.54-.29.62-.03.05-.06.1-.1.15-.08.1-.2.27-.47.45-.07.04-.14.08-.21.11-.26.1-.53.21-.99.15-.25-.01-.77-.19-1.05-.66-.07-.11-.11-.24-.14-.36-.09-.42,0-.69.09-.89.03-.07.06-.14.1-.2l.43-.54.34-.4c.18-.19.45-.47.96-.52l.45.02c.2.04.5.16.7.44.25.26.28.6.31.88l-.03-.16c.08.29.09.61.03.94-.14.55-.35,1.16-1.06,1.56-.42.22-.78.24-1.04.24-.44.03-1.15,0-1.69-.68-.03-.04-.06-.07-.08-.11-.25-.41-.3-.79-.33-1.1-.03-.46.02-.89.12-1.3.15-.47.34-.87.6-1.22.27-.35.65-.7,1.19-.76.4-.08.85.07,1.19.32.35.19.81.59.97,1.26.1.36.08.69.09.91.03.37.03.81-.09,1.26-.29.82-.81,1.54-1.68,1.84-.36.1-.7.14-1.06.07-.37-.07-.83-.3-1.08-.75-.19-.32-.22-.61-.25-.84-.09-.72.05-1.43.28-2.09.19-.5.41-.95.67-1.35.26-.39.51-.77,1.06-.97.38-.13.8-.08,1.12.13.5.34.46.6.52.68l.33.51c.07.14.16.33.18.58.04.29.01.58,0,.83-.01.37-.07.76-.19,1.14-.14.5-.5,1.04-1,1.4l-.35.25s-.1.05-.15.07c-.42.16-.79.15-1.02.14-.09,0-.37.14-.88-.2-.45-.36-.5-.8-.5-1l.03-.48.23-1.04.32-1.09.34-.72c.07-.12.17-.23.3-.3.13-.07.31-.15.55-.13.25.03.44.21.49.28M108.87,84.02c-.01.08-.05.16-.12.21-.01.01.1-.12.07-.07-.11.16-.32.2-.48.09-.16-.11-.2-.32-.09-.48.11-.16.32-.2.48-.09.13.09.18.26.13.41-.02.05.02-.08.02-.07M108.4,82.72c-.23-.19-.26-.53-.07-.76.03-.04.06-.07.1-.09l.32-.14c.06-.01.11-.02.17-.01.51.03,1.05.24,1.5.64.41.37.5.81.6,1.06.22.61.38,1.26.41,2.02.04.62.04,1.44-.44,2.2-.23.34-.54.76-1.09.97-.37.12-.6.1-.75.11l-.36.02-.44.05-.18.03-.13.02h-.1c-.25.05-.5-.03-.69-.19-.12-.1-.34-.13-.35-.67,0-.07,0-.13.02-.2.08-.37.15-.33.21-.4.16-.2.39-.32.64-.33h.05s.07-.01.07-.01l.26-.03.54-.06h.41s.15-.02.15-.02h0s.29-.27.29-.27c.2-.26.28-.7.29-1.2,0-.57-.09-1.04-.24-1.54l-.16-.61c-.13-.16-.49-.37-.68-.42-.06-.01-.11-.04-.16-.07l-.17-.11ZM108.81,82.38c.09.21.07.44-.05.63-.17.29-.21.22-.25.25l-.3.16s-.07.05-.11.07c-.11.06-.24.24-.38.55l-.42.98-.1.22.04-.14-.04.59c0,.06.01.12.01.18,0,.05,0-.08,0-.07l.05.14.1.37c.02.08.03.17.02.25v.55s-.07.04.16.06c.17.01.3.17.29.34,0,.11-.08.21-.18.26-.38.18-.81.22-1.18.02-.36-.2-.57-.51-.71-.68-.06-.06-.1-.14-.14-.21l-.08-.15c-.06-.1-.25-.35-.31-.76,0-.06-.01-.12,0-.18.02-.44.12-.85.27-1.22l-.04.14.07-.26.6-1.21c.25-.42.61-.95,1.26-1.22.04-.02.08-.03.13-.04l.41-.06h.23s.18.04.18.04c.09.03.26-.07.46.41M108.45,83.26c-.2.18-.5.18-.7,0-.19-.16-.2-.32-.21-.37,0-.01.03.09.01.04-.01-.03.11.18.07.13-.02-.03.14.14.09.1l.08.06s.21.09.14.07c-.36-.12-.55-.51-.42-.87.12-.36.51-.55.87-.42.36.12.55.51.42.87-.09.26-.32.44-.6.46-.08,0,.14-.02.12-.02-.17.04.2-.14.12-.06M108.29,82.63c.17-.05.34.05.39.21.05.17-.05.34-.21.39-.14.04-.27.07-.43.01h.19s-.21.01-.21.01c-.19-.05-.3-.25-.25-.44.05-.19.25-.3.44-.25.19.05.3.25.25.44,0,0,0,0,0,0-.02.07-.08-.31-.04-.25l-.15-.12h-.05s.07-.03.07-.03Z"/>
  </g>
  <path d="M164.79,105.03c-.35.09-.7-.12-.79-.46-.09-.35.12-.7.46-.79.07-.02.14-.02.2-.02l.45.03.71-.02,2.85-.24,2.18-.07,1.28-.15c.72-.1,1.34.03,1.9.11.71.03,1.39.13,2.06.12h1.2s.62.05.62.05l.94-.02.47-.04c.72,0,1.14.21,1.39.25h.6c1.42.07,2.83.04,4.25.1l2.02.08.35-.03.85.02-.24.02.2-.05s.08-.02.12-.02l.21-.02c.06,0,.11,0,.17,0l.54.05h-.17s.21-.02.21-.02c.07,0,.15,0,.22.02l.21.04.13.03c.36.09.63.38.7.74l.02.18c0,.08,0,.16-.03.23l-.04.12c-.14.34-.47.57-.84.59h-.09s-.21.01-.21.01c-.07,0-.15,0-.22-.02l-.18-.03.17.02h-.49c-.06,0-.11,0-.16,0l-.2-.03s-.08-.01-.12-.02l-.19-.05.24.03h-.74s-.51-.02-.51-.02l-2.01.02c-1.37-.09-2.8-.08-4.24-.21l-.84-.17c-.46-.04-.79-.18-1.01-.17h-.54s-1.15-.06-1.15-.06l-.54-.07h-1.12c-.83-.07-1.52-.23-2.22-.32-.53-.02-1.04-.04-1.39.05-.45.1-.96.21-1.51.24l-2.2-.04-2.93-.16-.68.06-.33.09Z"/>
  <polygon class="cls-2" points="238.81 69.14 231.81 74 225.95 72.54 235.69 64.64 238.81 69.14"/>
  <path d="M233.06,74.76c-.31.21-.74.12-.94-.2-.2-.31-.12-.72.18-.93l.79-.55.58-.46.14-.16.44-.35s.07-.05.12-.07l.51-.27-.1.07.34-.35.43-.43s.09-.08.15-.11l.44-.22.21-.16-.09.09.78-.89s.07-.07.1-.1l.21-.18.11-.1.2-.15.14-.1.2-.13s.07-.04.11-.06l.1-.04c.15-.06.32-.09.48-.08h.1s.08.02.08.02c.27.04.51.18.67.4h0c.11.15.17.32.18.5v-.07c.03.27-.04.54-.2.76h-.01c-.09.16-.21.28-.35.36l-.03.02s-.07.04-.11.06l-.07.04-.11.06-.08.05-.17.11-.18.14s-.08.06-.12.08l-1.08.62.11-.06-.46.28-.21.15s-.1.07-.16.1l-.42.24-.44.34.1-.07-.51.42s-.07.05-.11.08l-.31.18-.36.2-.59.39-.79.53Z"/>
  <path d="M235.76,65.45c-.21.32-.63.41-.95.21-.04-.03-.08-.06-.12-.1-.08-.08-.21-.28-.2-.51,0-.22.11-.39.2-.48.04-.04.08-.07.13-.1.46-.29.64-.16.85-.15.53.07.91.26,1.23.46l.54.28s.09.06.13.1l.29.37c-.04-.05.2-.01.58.36.31.32.35.58.4.7l.09.23.12.12.25.39.16.35.15.15.17.34s.03.09.03.14v.61c-.03.08-.06.16-.1.24-.14.23-.31.44-.58.5-.14.03-.29-.03-.37-.16l-.18-.31c-.05-.07-.08-.15-.1-.23l-.05-.14s-.05-.08-.06-.13l-.24-.29-.16-.23-.17-.33-.25-.34-.14-.24-.12-.29s.07.07.02.02c-.03-.03-.32-.11-.67-.53l-.07-.07s-.08-.06-.12-.1l-.38-.34-.47-.14-.3-.04h-.05s.15-.03.08-.01c-.05.01-.11.02-.17.01-.03,0,.26-.04.17-.02-.05.01.28-.13.2-.08-.08.05.28-.3.22-.22"/>
  <path d="M234.94,64.42c.34-.07.68.15.75.5.06.29-.09.58-.36.7-.06.03.06-.03.03-.01l-.13.1-1.15.72-1.25.84-.72.52-.64.61-.47.32-1.05.92-.74.58-.2.21-.44.38-.39.37-.15.16-.81.53-.42.23-.28.16-.22.12c-.11.07-.24.11-.37.12h-.12c-.26.06-.53-.08-.62-.34-.07-.17-.07-.36-.04-.54.02-.13.08-.25.16-.35l.25-.26.43-.3.45-.26.44-.31.23-.19.45-.38.34-.3.36-.29.76-.53,1.33-.77.24-.24.71-.64.71-.6,1.44-.87,1-.72c.12-.07.19-.17.48-.22"/>
  <path d="M208.38,73.56c-.35.11-.73-.09-.83-.45-.1-.33.07-.68.39-.81.41-.17.62.01.73.07l.15.09c.25.15,1.18.13,2.29.13l.83.05,1.77.05,1.66-.05,1.69-.12c1.08-.06,1.95-.02,2.93,0l2.91-.03c1.08,0,2.08-.09,3.03-.14l1.38-.11,1.13.05.2-.03.62-.02-.15.02.21-.04c.07-.01.15-.02.22-.02l.86.02h-.2s.21-.02.21-.02l.42-.03.27-.03.14-.02.3-.02h.32s.28.04.28.04h-.17s.1-.01.1-.01c.24,0,.48.07.67.22l.57.5c.22.24.21.61-.03.84-.02.02-.03.03-.05.04l-.52.38c-.2.14-.43.21-.68.2h-.09s.17-.01.17-.01l-.18.02-.27.02h-.3s-.28-.04-.28-.04h-.24s-.27-.01-.27-.01l-.31-.03h.2s-.86.08-.86.08c-.07,0-.15,0-.22,0l-.22-.03h.15s-.56.02-.56.02l-.42-.03h-1.02s-1.36-.07-1.36-.07c-.85.04-1.89.12-3.05.12l-2.95-.03c-.99,0-1.81-.01-2.74.05l-1.84-.03c-.56-.03-1.2-.05-1.83-.15l-1.77-.31h-.65c-1.06.04-2.09.28-2.99-.24l-.18-.13s.11.05.06.03c-.03-.01.19.04.13.03-.06,0,.33-.05.24-.02"/>
  <g>
    <path class="cls-1" d="M238.68,68.48c-.27-.41-.16-.96.24-1.23.41-.27.96-.16,1.23.24.09.14.14.3.15.47l-.06.48-.18.4.08-.27v.12c-.02.05-.03.11-.05.16l-.08.2c-.14.37-.56.55-.93.41-.3-.12-.49-.42-.46-.74l.02-.18c0-.05.01-.11.03-.16l.02-.08-.02.29-.02-.1c-.02-.09.05.04.02,0"/>
    <path class="cls-1" d="M236.15,65.87c-.29.11-.61-.03-.73-.32-.15-.36.01-.62.04-.7.08-.21.25-.37.46-.44.45-.16.68.04.8.12l.2.15-.12-.07.91.46c.28.22.52.42.71.73l.58,1.03c.1.14.24.35.35.63.01.04.03.08.03.12l.11.72v.39s-.02-.16-.02-.16l.03.14s-.05-.1-.02-.06c.01.03-.12-.17-.08-.12.02.03-.13-.13-.09-.1.04.04-.26-.16-.18-.12.43.22.61.74.39,1.18-.22.43-.74.61-1.18.39-.2-.1-.35-.27-.43-.47-.18-.48-.08-.53-.07-.75v.16s-.02-.27-.02-.27l-.13-.42s-.03-.08-.04-.12l-.14-.33-.56-.88-.29-.3-.67-.61.12.08-.13-.08s.19.05.12.04c-.04,0,.24,0,.17,0-.08,0,.34-.12.26-.08-.2.1-.43.11-.63.03-.06-.02.14.03.12.03-.06,0,.21-.04.13-.02"/>
    <path class="cls-1" d="M235.33,65.69c-.07-.06-.13-.13-.17-.22-.29-.54-.09-.61-.04-.75.06-.17.17-.32.32-.43.36-.26.62-.27.84-.31l.57-.04c.61-.01,1.06.31,1.31.47l.5.35.57.45.53.59.27.44.19.53-.05-.14.08.19s.03.1.05.15l.07.39v.5s-.03-.26-.03-.26l.06.2c.08.29,0,.59-.21.81l-.15.17c-.19.23-.53.26-.76.07l-.14-.11c-.25-.16-.4-.44-.4-.73v-.18s.04.26.04.26l-.1-.27-.11-.35s-.03-.1-.04-.15l-.02-.11.05.14-.11-.23-.15-.26-.3-.31-.33-.18-.5-.32-.35-.22-.18.03-.35.02h-.03c-.17.06-.36.06-.53.01-.03,0,0,.14-.38-.2"/>
  </g>
  <path class="cls-1" d="M149.31,129.91c.13.18.15.41.04.6-.05.1.06-.32.06-.27,0,.07,0-.07,0-.05l.02.12c.02.14,0,.29-.05.42l-.21.55-.33,1.01-.11.76v.08s-.02-.05-.02-.05c.01.02-.15-.19-.09-.13.06.06-.3-.18-.22-.15.17.08-.19-.04-.14-.03.06,0-.06,0-.04,0h.16s.35-.07.35-.07c.05-.02.1-.04.16-.06l.21-.08c.25-.13.28-.16.4-.42l.14-.68v-.5s.02.07-.02,0l-.26-.36-.19-.23h.01s.25.14.17.11c-.09-.03.31.02.24.03-.07,0,.23-.08.18-.06h.02c-.1.08-.45.68-.64,1.31-.15.45-.21.95-.17,1.22l.03.16s-.04-.08-.02-.04c.04.07-.25-.23-.19-.19.04.02-.11-.04-.09-.04l.09-.02c.14-.03.41-.24.55-.56l.23-.72.02-.52s-.16-.24-.32-.34c.02.02.11,0,.07.02,0,0,.11-.07.09-.05-.07.09-.19.45-.22.8v.67s.03.2.03.2c0,.02-.05-.08-.02-.04.03.04.05.08.07.12.04.07-.16-.19-.12-.16.05.05-.08-.05-.07-.05l.1.02h.08-.04s-.03.03-.03.03l.17-.28.05-.16v.16s0-.05,0-.05l.02.04s.13.13.08.1c-.02,0,.48.21.39.19-.06,0,.18,0,.14,0-.05,0,.12-.02.1-.02h.03c-.06.01.17-.12.14-.09-.04.03.06-.06.06-.05l-.04.06-.16.32-.03.09s0-.12,0-.06c0,.08,0,.15-.02.22,0,.02,0-.2,0-.13,0,.04-.03-.2-.02-.14.01.06-.1-.28-.06-.2.05.12.09.25.1.38,0,.09-.11-.39-.07-.29.06.15-.36-.46-.26-.37.1.09-.35-.21-.27-.18.01,0-.23-.06-.2-.06h-.04s.06-.01.06-.01c.08-.01.16-.02.24-.02.06,0-.12.01-.11,0l.05-.02c.06-.02.12-.03.18-.04l.29-.04-.3.19s-.06.1-.05.08v.02s.05.3.05.3c-.02-.06.15.22.1.17-.07-.08.32.21.24.18-.08-.03.26.05.21.05l.57-.18.02-.02.05-.05.06-.07c-.04.07-.09.13-.15.18l.02-.02c-.12.14-.26.24-.43.31l.07-.04c-.1.07.08-.09.03-.04l.08-.1s.08-.15.06-.11c-.11.25-.3.46-.55.58-.07.03.28-.23.21-.16-.07.08.2-.37.17-.27-.18.53-.76.81-1.29.63-.21-.07-.38-.2-.51-.38-.17-.24-.28-.59-.26-.92.01-.28.12-.54.31-.74l.23-.2-.1.08.45-.3.55-.15c.18-.02.36,0,.53.07l.23.11c.07.04.13.09.18.14l.19.24.11.23.06.33-.21-.56c.23.26.28.69.19.96l.04-.3c.02.3-.02.66-.31.99l.16-.32c-.08.33-.24.54-.29.62-.03.05-.06.1-.1.15-.08.1-.2.27-.47.45-.07.04-.14.08-.21.11-.26.1-.53.21-.99.15-.25-.01-.77-.19-1.05-.66-.07-.11-.11-.24-.14-.36-.09-.42,0-.69.09-.89.03-.07.06-.14.1-.2l.43-.54.34-.4c.18-.19.45-.47.96-.52l.45.02c.2.04.5.16.7.44.25.26.28.6.31.88l-.03-.16c.08.29.09.61.03.94-.14.55-.35,1.16-1.06,1.56-.42.22-.78.24-1.04.24-.44.03-1.15,0-1.69-.68-.03-.04-.06-.07-.08-.11-.25-.41-.3-.79-.33-1.1-.03-.46.02-.89.12-1.3.15-.47.34-.87.6-1.22.27-.35.65-.7,1.19-.76.4-.08.85.07,1.19.32.35.19.81.59.97,1.26.1.36.08.69.09.91.03.37.03.81-.09,1.26-.29.82-.81,1.54-1.68,1.84-.36.1-.7.14-1.06.07-.37-.07-.83-.3-1.08-.75-.19-.32-.22-.61-.25-.84-.09-.72.05-1.43.28-2.09.19-.5.41-.95.67-1.35.26-.39.51-.77,1.06-.97.38-.13.8-.08,1.12.13.5.34.46.6.52.68l.33.51c.07.14.16.33.18.58.04.29.01.58,0,.83-.01.37-.07.76-.19,1.14-.14.5-.5,1.04-1,1.4l-.35.25s-.1.05-.15.07c-.42.16-.79.15-1.02.14-.09,0-.37.14-.88-.2-.45-.36-.5-.8-.5-1l.03-.48.23-1.04.32-1.09.34-.72c.07-.12.17-.23.3-.3.13-.07.31-.15.55-.13.25.03.44.21.49.28"/>
  <path class="cls-1" d="M149.36,130.35c-.01.08-.05.16-.12.21-.01.01.1-.12.07-.07-.11.16-.32.2-.48.09-.16-.11-.2-.32-.09-.48.11-.16.32-.2.48-.09.13.09.18.26.13.41-.02.05.02-.08.02-.07"/>
  <path class="cls-1" d="M148.89,129.06c-.23-.19-.26-.53-.07-.76.03-.04.06-.07.1-.09l.32-.14c.06-.01.11-.02.17-.01.51.03,1.05.24,1.5.64.41.37.5.81.6,1.06.22.61.38,1.26.41,2.02.04.62.04,1.44-.44,2.2-.23.34-.54.76-1.09.97-.37.12-.6.1-.75.11l-.36.02-.44.05-.18.03-.13.02h-.1c-.25.05-.5-.03-.69-.19-.12-.1-.34-.13-.35-.67,0-.07,0-.13.02-.2.08-.37.15-.33.21-.4.16-.2.39-.32.64-.33h.05s.07-.01.07-.01l.26-.03.54-.06h.41s.15-.02.15-.02h0s.29-.27.29-.27c.2-.26.28-.7.29-1.2,0-.57-.09-1.04-.24-1.54l-.16-.61c-.13-.16-.49-.37-.68-.42-.06-.01-.11-.04-.16-.07l-.17-.11Z"/>
  <path class="cls-1" d="M149.3,128.71c.09.21.07.44-.05.63-.17.29-.21.22-.25.25l-.3.16s-.07.05-.11.07c-.11.06-.24.24-.38.55l-.42.98-.1.22.04-.14-.04.59c0,.06.01.12.01.18,0,.05,0-.08,0-.07l.05.14.1.37c.02.08.03.17.02.25v.55s-.07.04.16.06c.17.01.3.17.29.34,0,.11-.08.21-.18.26-.38.18-.81.22-1.18.02-.36-.2-.57-.51-.71-.68-.06-.06-.1-.14-.14-.21l-.08-.15c-.06-.1-.25-.35-.31-.76,0-.06-.01-.12,0-.18.02-.44.12-.85.27-1.22l-.04.14.07-.26.6-1.21c.25-.42.61-.95,1.26-1.22.04-.02.08-.03.13-.04l.41-.06h.23s.18.04.18.04c.09.03.26-.07.46.41"/>
  <path class="cls-1" d="M148.94,129.6c-.2.18-.5.18-.7,0-.19-.16-.2-.32-.21-.37,0-.01.03.09.01.04-.01-.03.11.18.07.13-.02-.03.14.14.09.1l.08.06s.21.09.14.07c-.36-.12-.55-.51-.42-.87.12-.36.51-.55.87-.42.36.12.55.51.42.87-.09.26-.32.44-.6.46-.08,0,.14-.02.12-.02-.17.04.2-.14.12-.06"/>
  <path class="cls-1" d="M148.78,128.96c.17-.05.34.05.39.21.05.17-.05.34-.21.39-.14.04-.27.07-.43.01h.19s-.21.01-.21.01c-.19-.05-.3-.25-.25-.44.05-.19.25-.3.44-.25.19.05.3.25.25.44,0,0,0,0,0,0-.02.07-.08-.31-.04-.25l-.15-.12h-.05s.07-.03.07-.03Z"/>
</svg>